<svg version="1.1" xmlns="http://www.w3.org/2000/svg" viewBox="0 0 1212 792" width="1212" height="792"><!-- svg-source:excalidraw --><metadata></metadata><defs><style class="style-fonts">
      </style></defs><rect x="0" y="0" width="1212" height="792" fill="#f6f1e8"></rect><g stroke-linecap="round" transform="translate(10 10) rotate(0 596 386)"><path d="M32 0 C424.11 -6.68, 818.93 -4.37, 1160 0 C1183.87 -0.05, 1195.22 9.76, 1192 32 C1193.7 278.87, 1192.97 522.69, 1192 740 C1194.91 760.04, 1184.01 773.02, 1160 772 C740.5 769.12, 324.03 768.69, 32 772 C8.14 774.37, 3.17 764.87, 0 740 C3.11 503.21, 0.88 265.14, 0 32 C0.84 7.42, 12.48 -2.56, 32 0" stroke="none" stroke-width="0" fill="#fbf8f2"></path><path d="M32 0 C267.64 3.54, 503.47 3.68, 1160 0 M32 0 C342.72 -3.96, 653.74 -4.07, 1160 0 M1160 0 C1181.05 1.74, 1191.3 12.66, 1192 32 M1160 0 C1179.7 -2, 1192.97 9.43, 1192 32 M1192 32 C1190.43 252.38, 1190.31 474.12, 1192 740 M1192 32 C1190.37 273.16, 1190.64 513.34, 1192 740 M1192 740 C1191.98 761.88, 1179.5 773.64, 1160 772 M1192 740 C1191.61 759.99, 1180.31 773.62, 1160 772 M1160 772 C709.47 767.99, 258.33 768.56, 32 772 M1160 772 C822.47 767.98, 484.83 767.97, 32 772 M32 772 C10.24 772.74, -0.59 759.91, 0 740 M32 772 C12.8 773.12, -2 763.41, 0 740 M0 740 C-0.7 502.4, -2.22 263.64, 0 32 M0 740 C-1.54 563.34, -1.6 386.63, 0 32 M0 32 C0.47 9.46, 10.64 -1.68, 32 0 M0 32 C1.77 12.75, 11.27 1.64, 32 0" stroke="#b9ab9a" stroke-width="2" fill="none"></path></g><g stroke-linecap="round" transform="translate(42 38) rotate(0 60 19)"><path d="M9.5 0 C44.62 -1.39, 75.27 -3.75, 110.5 0 C116.56 -3.18, 117.61 0.96, 120 9.5 C119.73 15.86, 120.59 25.66, 120 28.5 C118.39 32.34, 115.57 41.37, 110.5 38 C81.94 37.95, 49.47 38.07, 9.5 38 C4.17 35.32, 2.81 32.08, 0 28.5 C-0.55 20.69, -3.42 15.78, 0 9.5 C3.45 3.16, 1.91 1.61, 9.5 0" stroke="none" stroke-width="0" fill="#f2e0d2"></path><path d="M9.5 0 C28.88 1.61, 51.72 -0.26, 110.5 0 M9.5 0 C46.9 0.03, 82.07 -0.92, 110.5 0 M110.5 0 C116.93 -0.91, 118.79 2.35, 120 9.5 M110.5 0 C118.66 -1.82, 121.36 3.85, 120 9.5 M120 9.5 C120.66 15.26, 119.72 19.63, 120 28.5 M120 9.5 C120.53 14.55, 120.92 19.35, 120 28.5 M120 28.5 C119.24 35.02, 115.04 39.76, 110.5 38 M120 28.5 C118.92 33.01, 117.64 37.81, 110.5 38 M110.5 38 C85.52 37.64, 57.82 39.65, 9.5 38 M110.5 38 C74.09 38, 37.23 39.28, 9.5 38 M9.5 38 C2.02 36.4, 0.31 34.71, 0 28.5 M9.5 38 C0.89 36.31, -1.48 32.8, 0 28.5 M0 28.5 C-1.06 22.48, 0.52 19.43, 0 9.5 M0 28.5 C-0.1 22.8, -0.87 17.47, 0 9.5 M0 9.5 C-0.89 1.85, 4.14 -1.61, 9.5 0 M0 9.5 C-0.12 2.69, 3.27 0.84, 9.5 0" stroke="#b9ab9a" stroke-width="2" fill="none"></path></g><g transform="translate(68 48) rotate(0 32 10)"><text x="0" y="14.3203125" font-family="Helvetica, Segoe UI Emoji" font-size="16px" fill="#6f6256" text-anchor="start" style="white-space: pre;" direction="ltr" dominant-baseline="alphabetic">执行闭环</text></g><g transform="translate(42 98) rotate(0 167.28 42.5)"><text x="0" y="30.4306640625" font-family="Helvetica, Segoe UI Emoji" font-size="34px" fill="#1f1b17" text-anchor="start" style="white-space: pre;" direction="ltr" dominant-baseline="alphabetic">从 prompt 到 proof</text><text x="0" y="72.9306640625" font-family="Helvetica, Segoe UI Emoji" font-size="34px" fill="#1f1b17" text-anchor="start" style="white-space: pre;" direction="ltr" dominant-baseline="alphabetic">中间发生了什么</text></g><g transform="translate(42 199) rotate(0 171 22.5)"><text x="0" y="16.1103515625" font-family="Helvetica, Segoe UI Emoji" font-size="18px" fill="#6f6256" text-anchor="start" style="white-space: pre;" direction="ltr" dominant-baseline="alphabetic">Hermit 会把一个任务变成</text><text x="0" y="38.6103515625" font-family="Helvetica, Segoe UI Emoji" font-size="18px" fill="#6f6256" text-anchor="start" style="white-space: pre;" direction="ltr" dominant-baseline="alphabetic">可检查的执行路径，带审批、回执和回滚。</text></g><g stroke-linecap="round" transform="translate(46 298) rotate(0 87 59)"><path d="M29.5 0 C56.35 3.77, 84.12 -2.31, 144.5 0 C167.08 -1.28, 170.79 9.63, 174 29.5 C177.3 46.59, 174.74 69.04, 174 88.5 C175.93 108.05, 161.54 116.37, 144.5 118 C122.15 119.23, 100.31 116.96, 29.5 118 C10.52 116.74, 1.37 109.04, 0 88.5 C1.98 76.93, 1.92 64.56, 0 29.5 C-0.49 8.36, 10.7 -3.3, 29.5 0" stroke="none" stroke-width="0" fill="#fffdf9"></path><path d="M29.5 0 C55.31 1.97, 76.6 -0.78, 144.5 0 M29.5 0 C65.14 -1.23, 102.56 -0.87, 144.5 0 M144.5 0 C165.77 0.47, 174.74 9.8, 174 29.5 M144.5 0 C166.05 -1.12, 172.31 8.96, 174 29.5 M174 29.5 C172.33 42.98, 172.56 59.58, 174 88.5 M174 29.5 C173.69 42.46, 173.04 55.93, 174 88.5 M174 88.5 C174.3 106.92, 162.52 116.21, 144.5 118 M174 88.5 C174.77 109.04, 163.13 119.79, 144.5 118 M144.5 118 C112.01 119.58, 80.1 115.95, 29.5 118 M144.5 118 C99.63 116.45, 53.62 116.95, 29.5 118 M29.5 118 C9.81 119.05, -0.07 109.25, 0 88.5 M29.5 118 C8.31 118.87, 0.64 108.1, 0 88.5 M0 88.5 C-1.03 67.5, -1.53 49.63, 0 29.5 M0 88.5 C-0.4 68.32, 0.1 48.59, 0 29.5 M0 29.5 C1.68 8.11, 10.83 -1.32, 29.5 0 M0 29.5 C1.52 8.3, 7.92 2.25, 29.5 0" stroke="#b9ab9a" stroke-width="2" fill="none"></path></g><g transform="translate(66 316) rotate(0 16 10)"><text x="0" y="14.3203125" font-family="Helvetica, Segoe UI Emoji" font-size="16px" fill="#6f6256" text-anchor="start" style="white-space: pre;" direction="ltr" dominant-baseline="alphabetic">入口</text></g><g transform="translate(66 344) rotate(0 50.31999999999999 21.25)"><text x="0" y="15.21533203125" font-family="Helvetica, Segoe UI Emoji" font-size="17px" fill="#1f1b17" text-anchor="start" style="white-space: pre;" direction="ltr" dominant-baseline="alphabetic">CLI / Chat</text><text x="0" y="36.46533203125" font-family="Helvetica, Segoe UI Emoji" font-size="17px" fill="#1f1b17" text-anchor="start" style="white-space: pre;" direction="ltr" dominant-baseline="alphabetic">飞书 / 调度</text></g><g stroke-linecap="round" transform="translate(244 298) rotate(0 93 59)"><path d="M29.5 0 C76.12 2.91, 125.9 1.24, 156.5 0 C177.87 -3.46, 187.58 12.93, 186 29.5 C183.91 43.85, 189.54 54.06, 186 88.5 C188.78 111.63, 176.11 116.23, 156.5 118 C104.92 121.48, 55.37 115.62, 29.5 118 C6.68 116, 0.29 111.76, 0 88.5 C-0.54 69.89, -0.18 47.6, 0 29.5 C0.15 10.86, 8.69 2.03, 29.5 0" stroke="none" stroke-width="0" fill="#fffdf9"></path><path d="M29.5 0 C54.46 -0.92, 83.92 1.67, 156.5 0 M29.5 0 C77.04 -1.3, 125.36 -0.96, 156.5 0 M156.5 0 C174.9 0.51, 185.2 9.38, 186 29.5 M156.5 0 C174.63 -0.59, 185.48 10.1, 186 29.5 M186 29.5 C184.52 52.02, 186.65 75.09, 186 88.5 M186 29.5 C184.66 47.18, 185.21 65.96, 186 88.5 M186 88.5 C184.1 109.85, 174.64 116.55, 156.5 118 M186 88.5 C184.71 107.6, 176.05 118.97, 156.5 118 M156.5 118 C126.98 120.32, 98.49 118.47, 29.5 118 M156.5 118 C109.36 118.53, 62.55 118.94, 29.5 118 M29.5 118 C11.66 116.04, -1.36 109.16, 0 88.5 M29.5 118 C8.87 119.64, 2.22 109.57, 0 88.5 M0 88.5 C-1.81 71.82, -1.93 56.28, 0 29.5 M0 88.5 C0.83 65.95, -0.68 43.39, 0 29.5 M0 29.5 C1.6 11.8, 9.85 -1.11, 29.5 0 M0 29.5 C0.46 9.81, 11.02 -0.15, 29.5 0" stroke="#b9ab9a" stroke-width="2" fill="none"></path></g><g transform="translate(264 316) rotate(0 16 10)"><text x="0" y="14.3203125" font-family="Helvetica, Segoe UI Emoji" font-size="16px" fill="#6f6256" text-anchor="start" style="white-space: pre;" direction="ltr" dominant-baseline="alphabetic">内核</text></g><g transform="translate(264 344) rotate(0 59.670000000000016 21.25)"><text x="0" y="15.21533203125" font-family="Helvetica, Segoe UI Emoji" font-size="17px" fill="#1f1b17" text-anchor="start" style="white-space: pre;" direction="ltr" dominant-baseline="alphabetic">Task -&gt; Step</text><text x="0" y="36.46533203125" font-family="Helvetica, Segoe UI Emoji" font-size="17px" fill="#1f1b17" text-anchor="start" style="white-space: pre;" direction="ltr" dominant-baseline="alphabetic">StepAttempt</text></g><g stroke-linecap="round" transform="translate(454 276) rotate(0 116 80)"><path d="M32 0 C83.3 1.58, 140 -2.87, 200 0 C221.82 1.57, 231.16 9.87, 232 32 C231.86 60.63, 231.29 97.22, 232 128 C228.43 149.18, 223.85 158.08, 200 160 C139.08 160.77, 74.5 158.51, 32 160 C10.88 157.27, -0.8 148.45, 0 128 C-3.45 94.78, -2.68 62.22, 0 32 C0.8 14.2, 7.51 0.15, 32 0" stroke="none" stroke-width="0" fill="#f6eedf"></path><path d="M32 0 C66.23 -0.21, 101.96 -0.28, 200 0 M32 0 C72.17 1.49, 114.12 1.81, 200 0 M200 0 C221.2 0.56, 233.67 9.8, 232 32 M200 0 C220.99 -0.06, 232.65 12.07, 232 32 M232 32 C231.02 58.69, 231.07 87.37, 232 128 M232 32 C233.06 71.11, 232.82 107.91, 232 128 M232 128 C231.89 149.94, 219.92 158.89, 200 160 M232 128 C233.25 147.33, 222.13 160.16, 200 160 M200 160 C134.95 160.47, 67.39 160.4, 32 160 M200 160 C141.11 157.75, 84.04 158.07, 32 160 M32 160 C10.34 159.03, 1.35 150.23, 0 128 M32 160 C10.27 157.81, -0.8 147.61, 0 128 M0 128 C-1.04 107.2, -0.78 85.53, 0 32 M0 128 C-1.24 106.5, -0.76 84.54, 0 32 M0 32 C1.53 12.32, 9.7 -0.9, 32 0 M0 32 C-0.61 12.16, 10.34 2.06, 32 0" stroke="#b9ab9a" stroke-width="2" fill="none"></path></g><g transform="translate(474 294) rotate(0 16 10)"><text x="0" y="14.3203125" font-family="Helvetica, Segoe UI Emoji" font-size="16px" fill="#6f6256" text-anchor="start" style="white-space: pre;" direction="ltr" dominant-baseline="alphabetic">治理</text></g><g transform="translate(474 322) rotate(0 56.44 31.875)"><text x="0" y="15.21533203125" font-family="Helvetica, Segoe UI Emoji" font-size="17px" fill="#1f1b17" text-anchor="start" style="white-space: pre;" direction="ltr" dominant-baseline="alphabetic">Policy gate</text><text x="0" y="36.46533203125" font-family="Helvetica, Segoe UI Emoji" font-size="17px" fill="#1f1b17" text-anchor="start" style="white-space: pre;" direction="ltr" dominant-baseline="alphabetic">审批</text><text x="0" y="57.71533203125" font-family="Helvetica, Segoe UI Emoji" font-size="17px" fill="#1f1b17" text-anchor="start" style="white-space: pre;" direction="ltr" dominant-baseline="alphabetic">权限边界</text></g><g stroke-linecap="round" transform="translate(710 298) rotate(0 91 59)"><path d="M29.5 0 C65.1 1.03, 93.95 0.99, 152.5 0 C171.44 -0.61, 178.75 12.34, 182 29.5 C183.53 42.97, 183.95 54.91, 182 88.5 C179.28 111.6, 170.06 115.94, 152.5 118 C106.85 121.55, 66.26 115.7, 29.5 118 C13.41 114.53, -1.88 110.01, 0 88.5 C3.75 72.21, -2.26 53.7, 0 29.5 C1.44 8.67, 11.86 -1.73, 29.5 0" stroke="none" stroke-width="0" fill="#fffdf9"></path><path d="M29.5 0 C54.88 -0.29, 82.79 0.98, 152.5 0 M29.5 0 C66.68 1.17, 104.64 -0.52, 152.5 0 M152.5 0 C173.17 0.6, 182.13 8.55, 182 29.5 M152.5 0 C173.01 0.47, 183.81 7.78, 182 29.5 M182 29.5 C183.7 42.5, 181.66 54.92, 182 88.5 M182 29.5 C181.76 46.82, 182.72 62.41, 182 88.5 M182 88.5 C183.69 107.7, 170.86 117.23, 152.5 118 M182 88.5 C181.19 109.33, 173.88 117.34, 152.5 118 M152.5 118 C107.49 119.31, 64.42 121.02, 29.5 118 M152.5 118 C113.54 118.33, 73.88 118.57, 29.5 118 M29.5 118 C11.35 118.03, 0.06 108.96, 0 88.5 M29.5 118 C10 116.58, 0.79 107.92, 0 88.5 M0 88.5 C1.82 64.66, 2.46 41.97, 0 29.5 M0 88.5 C0.1 73.01, 0.57 56.58, 0 29.5 M0 29.5 C1.45 11.18, 7.89 -0.68, 29.5 0 M0 29.5 C-1.68 8.24, 8 -0.34, 29.5 0" stroke="#b9ab9a" stroke-width="2" fill="none"></path></g><g transform="translate(730 316) rotate(0 16 10)"><text x="0" y="14.3203125" font-family="Helvetica, Segoe UI Emoji" font-size="16px" fill="#6f6256" text-anchor="start" style="white-space: pre;" direction="ltr" dominant-baseline="alphabetic">执行</text></g><g transform="translate(730 344) rotate(0 54.74000000000001 21.25)"><text x="0" y="15.21533203125" font-family="Helvetica, Segoe UI Emoji" font-size="17px" fill="#1f1b17" text-anchor="start" style="white-space: pre;" direction="ltr" dominant-baseline="alphabetic">工具在</text><text x="0" y="36.46533203125" font-family="Helvetica, Segoe UI Emoji" font-size="17px" fill="#1f1b17" text-anchor="start" style="white-space: pre;" direction="ltr" dominant-baseline="alphabetic">scope 内运行</text></g><g stroke-linecap="round" transform="translate(916 298) rotate(0 72 59)"><path d="M29.5 0 C49.13 4.14, 64.24 1.31, 114.5 0 C132.23 -2.78, 145.53 8.44, 144 29.5 C147.34 52.03, 141.55 70.74, 144 88.5 C142.13 107.98, 134.64 115.79, 114.5 118 C87.33 120.04, 59.55 117.79, 29.5 118 C9.57 120.99, -2.96 105.53, 0 88.5 C1.23 76.98, 2.84 60.34, 0 29.5 C2.09 11.17, 9.85 3.59, 29.5 0" stroke="none" stroke-width="0" fill="#fffdf9"></path><path d="M29.5 0 C47.48 0.83, 65.01 -0.57, 114.5 0 M29.5 0 C60.55 -0.74, 91.39 -0.45, 114.5 0 M114.5 0 C132.3 0.64, 142.6 8.13, 144 29.5 M114.5 0 C136.19 1, 142.38 8.92, 144 29.5 M144 29.5 C145.89 51.54, 145.75 70.43, 144 88.5 M144 29.5 C144.72 51.54, 144.89 74.43, 144 88.5 M144 88.5 C143.49 106.63, 132.98 117.57, 114.5 118 M144 88.5 C145.73 107.9, 132.2 116.52, 114.5 118 M114.5 118 C87.96 117.63, 59.82 117.11, 29.5 118 M114.5 118 C89.25 118.17, 62.79 118.32, 29.5 118 M29.5 118 C9.19 119.02, -1.23 108.87, 0 88.5 M29.5 118 C10.56 117.35, -2.23 109.39, 0 88.5 M0 88.5 C1.05 68.98, 2.07 48.62, 0 29.5 M0 88.5 C0.15 68.64, 0.6 51.38, 0 29.5 M0 29.5 C1.37 10.87, 10.91 -0.47, 29.5 0 M0 29.5 C1.85 9.75, 11.09 1.87, 29.5 0" stroke="#b9ab9a" stroke-width="2" fill="none"></path></g><g transform="translate(936 316) rotate(0 16 10)"><text x="0" y="14.3203125" font-family="Helvetica, Segoe UI Emoji" font-size="16px" fill="#6f6256" text-anchor="start" style="white-space: pre;" direction="ltr" dominant-baseline="alphabetic">证据</text></g><g transform="translate(936 344) rotate(0 17 21.25)"><text x="0" y="15.21533203125" font-family="Helvetica, Segoe UI Emoji" font-size="17px" fill="#1f1b17" text-anchor="start" style="white-space: pre;" direction="ltr" dominant-baseline="alphabetic">回执</text><text x="0" y="36.46533203125" font-family="Helvetica, Segoe UI Emoji" font-size="17px" fill="#1f1b17" text-anchor="start" style="white-space: pre;" direction="ltr" dominant-baseline="alphabetic">证明</text></g><g stroke-linecap="round"><g transform="translate(220 352) rotate(0 12 0)"><path d="M0 0 C5.38 -0.7, 11.04 -0.73, 24 0 M0 0 C5.47 -0.06, 11.33 0.08, 24 0" stroke="#b9ab9a" stroke-width="3" fill="none"></path></g><g transform="translate(220 352) rotate(0 12 0)"><path d="M23.47 0.62 L13.74 4.1 L13.85 -4.74 L24.56 0.05" stroke="none" stroke-width="0" fill="#b9ab9a" fill-rule="evenodd"></path><path d="M24 0 C21.9 0.75, 19.95 1.81, 13.14 5.1 M24 0 C21.45 1.24, 19.11 2.51, 13.14 5.1 M13.14 5.1 C13.59 2.13, 13.44 -0.34, 13.11 -5.04 M13.14 5.1 C12.93 2.12, 13.11 -1.3, 13.11 -5.04 M13.11 -5.04 C17.3 -3.11, 21.2 -1.54, 24 0 M13.11 -5.04 C16.58 -3.42, 20.32 -1.95, 24 0 M24 0 C24 0, 24 0, 24 0 M24 0 C24 0, 24 0, 24 0" stroke="#b9ab9a" stroke-width="3" fill="none"></path></g></g><mask></mask><g stroke-linecap="round"><g transform="translate(430 352) rotate(0 12 0)"><path d="M0 0 C4.82 0.41, 9.41 -0.73, 24 0 M0 0 C7.92 0.1, 15.74 -0.1, 24 0" stroke="#b9ab9a" stroke-width="3" fill="none"></path></g><g transform="translate(430 352) rotate(0 12 0)"><path d="M23.59 0.94 L13.35 4.87 L12.33 -4.15 L24.64 0.83" stroke="none" stroke-width="0" fill="#b9ab9a" fill-rule="evenodd"></path><path d="M24 0 C21.52 1.26, 18.92 1.65, 13.11 5.04 M24 0 C20.69 1.7, 17.29 3.19, 13.11 5.04 M13.11 5.04 C12.93 2.63, 13.55 -0.7, 13.14 -5.11 M13.11 5.04 C13.27 1.03, 12.97 -2.82, 13.14 -5.11 M13.14 -5.11 C15.58 -3.57, 18.61 -2.73, 24 0 M13.14 -5.11 C16.45 -3.5, 19.93 -2.17, 24 0 M24 0 C24 0, 24 0, 24 0 M24 0 C24 0, 24 0, 24 0" stroke="#b9ab9a" stroke-width="3" fill="none"></path></g></g><mask></mask><g stroke-linecap="round"><g transform="translate(686 352) rotate(0 12 0)"><path d="M0 0 C4.25 -0.72, 9.78 -0.97, 24 0 M0 0 C4.57 0.26, 9.54 -0.28, 24 0" stroke="#b9ab9a" stroke-width="3" fill="none"></path></g><g transform="translate(686 352) rotate(0 12 0)"><path d="M23.72 -0.74 L12.97 5.66 L12.8 -5.54 L24.73 -0.39" stroke="none" stroke-width="0" fill="#b9ab9a" fill-rule="evenodd"></path><path d="M24 0 C21.2 0.69, 19.15 1.6, 13.09 5 M24 0 C21.51 1.16, 19.24 1.88, 13.09 5 M13.09 5 C13.2 2.15, 13.56 -1.03, 13.16 -5.15 M13.09 5 C13.21 1.99, 12.92 -0.76, 13.16 -5.15 M13.16 -5.15 C17.17 -2.89, 20.31 -1.76, 24 0 M13.16 -5.15 C16.31 -3.57, 19.55 -1.77, 24 0 M24 0 C24 0, 24 0, 24 0 M24 0 C24 0, 24 0, 24 0" stroke="#b9ab9a" stroke-width="3" fill="none"></path></g></g><mask></mask><g stroke-linecap="round"><g transform="translate(892 352) rotate(0 12 0)"><path d="M0 0 C5.68 0.39, 10.15 1.03, 24 0 M0 0 C7.02 0.42, 13.95 0.54, 24 0" stroke="#b9ab9a" stroke-width="3" fill="none"></path></g><g transform="translate(892 352) rotate(0 12 0)"><path d="M23.84 -0.42 L12.85 4.98 L13.03 -4.39 L24.81 0.39" stroke="none" stroke-width="0" fill="#b9ab9a" fill-rule="evenodd"></path><path d="M24 0 C22.08 1.32, 19.44 2.87, 13.33 5.49 M24 0 C20.83 1.77, 17.58 3.47, 13.33 5.49 M13.33 5.49 C13.56 2.2, 13.51 -0.84, 12.94 -4.65 M13.33 5.49 C13.13 1.97, 13.2 -1.71, 12.94 -4.65 M12.94 -4.65 C15.27 -4.03, 18.8 -2.58, 24 0 M12.94 -4.65 C16.01 -3.27, 19.66 -1.76, 24 0 M24 0 C24 0, 24 0, 24 0 M24 0 C24 0, 24 0, 24 0" stroke="#b9ab9a" stroke-width="3" fill="none"></path></g></g><mask></mask><g stroke-linecap="round" transform="translate(74 504) rotate(0 508 96)"><path d="M32 0 C276.67 -4.35, 522.59 -5.2, 984 0 C1005.36 -3.06, 1014.29 7.38, 1016 32 C1018.45 79.11, 1017.39 136.23, 1016 160 C1018.51 179.91, 1007.01 191.85, 984 192 C768.9 193.4, 555.94 195.86, 32 192 C13.46 188.47, 1.71 177.85, 0 160 C2.52 130.15, 0.31 102.87, 0 32 C-1.21 13.05, 10.8 -3.2, 32 0" stroke="none" stroke-width="0" fill="#fffdf9"></path><path d="M32 0 C234.08 -1.47, 436.39 -0.25, 984 0 M32 0 C396.98 -2.43, 761.48 -2.6, 984 0 M984 0 C1006.11 -1.94, 1015.02 9.33, 1016 32 M984 0 C1004 2.24, 1017.1 9.34, 1016 32 M1016 32 C1015.27 70.4, 1014.27 107.66, 1016 160 M1016 32 C1016.04 64.47, 1016.35 95.15, 1016 160 M1016 160 C1014.34 181.29, 1004.41 192.36, 984 192 M1016 160 C1017.52 182.32, 1007.03 191.69, 984 192 M984 192 C691.62 190.33, 398.49 191.77, 32 192 M984 192 C688.58 192.9, 392.98 192.62, 32 192 M32 192 C8.99 192.66, 1.09 183.15, 0 160 M32 192 C12.71 190.08, 1.47 181.39, 0 160 M0 160 C0.83 115.51, 0.07 68.18, 0 32 M0 160 C1.68 129.5, 1.44 99.2, 0 32 M0 32 C-0.13 10.98, 10.78 0.03, 32 0 M0 32 C-2.17 11.04, 8.41 0.88, 32 0" stroke="#b9ab9a" stroke-width="2" fill="none"></path></g><g transform="translate(104 538) rotate(0 210 17.5)"><text x="0" y="25.060546875" font-family="Helvetica, Segoe UI Emoji" font-size="28px" fill="#1f1b17" text-anchor="start" style="white-space: pre;" direction="ltr" dominant-baseline="alphabetic">任务完成后，操作者还能检查什么</text></g><g stroke-linecap="round" transform="translate(104 608) rotate(0 75 30)"><path d="M15 0 C41.19 -5.44, 69.6 -2.23, 135 0 C146.62 -2.11, 151.48 6.31, 150 15 C152.06 26.22, 149.25 33.92, 150 45 C150.68 58.37, 146 57.35, 135 60 C98.93 56.59, 66.8 57.96, 15 60 C7.63 60.78, 0.99 53.33, 0 45 C1.32 31.38, -3.02 25.61, 0 15 C-3.18 6.65, 6.19 -2.05, 15 0" stroke="none" stroke-width="0" fill="#f2ead7"></path><path d="M15 0 C42.27 -1.5, 64.13 1.11, 135 0 M15 0 C57.99 -0.43, 101.79 -0.19, 135 0 M135 0 C146.53 0.76, 151.99 6.05, 150 15 M135 0 C145.99 -2.01, 151.88 2.9, 150 15 M150 15 C150.36 23.59, 147.96 33.34, 150 45 M150 15 C150.54 22.65, 150.32 28.89, 150 45 M150 45 C150.87 54.24, 144.15 60.59, 135 60 M150 45 C150.15 55.03, 145.78 60.68, 135 60 M135 60 C110.97 60.93, 82.72 57.73, 15 60 M135 60 C108.14 59.96, 80.5 59.85, 15 60 M15 60 C5.89 59.99, -1.1 55.42, 0 45 M15 60 C2.82 61.66, -2.08 56.04, 0 45 M0 45 C-1.36 33.96, 0.8 20.1, 0 15 M0 45 C-0.4 37.59, 0.02 29.4, 0 15 M0 15 C1.15 5.11, 3.13 0.18, 15 0 M0 15 C-1.35 4.85, 6.34 -0.72, 15 0" stroke="#b9ab9a" stroke-width="2" fill="none"></path></g><g transform="translate(130 626) rotate(0 40 12.5)"><text x="0" y="17.900390625" font-family="Helvetica, Segoe UI Emoji" font-size="20px" fill="#1f1b17" text-anchor="start" style="white-space: pre;" direction="ltr" dominant-baseline="alphabetic">任务状态</text></g><g stroke-linecap="round" transform="translate(272 608) rotate(0 75 30)"><path d="M15 0 C62.16 3.07, 103.42 4.43, 135 0 C148.21 -1.16, 147.47 3.71, 150 15 C146.5 27.81, 149.16 37.97, 150 45 C148.85 55.96, 145.32 62.05, 135 60 C92.35 59.51, 52.25 63.28, 15 60 C7.48 57.89, 0.27 55.15, 0 45 C2.55 38.22, 3.3 30.17, 0 15 C2.05 5.92, 7.25 -0.9, 15 0" stroke="none" stroke-width="0" fill="#f2ead7"></path><path d="M15 0 C40.02 -1.3, 65.64 0.87, 135 0 M15 0 C54.44 -1.23, 94.7 -0.33, 135 0 M135 0 C143.28 -0.55, 150.97 4.44, 150 15 M135 0 C143.71 -1.66, 148.06 6.72, 150 15 M150 15 C151.85 26.58, 152.06 33.61, 150 45 M150 15 C148.86 22.09, 150.11 28.16, 150 45 M150 45 C149.4 53.52, 144.23 60.81, 135 60 M150 45 C148.77 54.07, 144.86 61.67, 135 60 M135 60 C94.95 62.2, 56.33 60.19, 15 60 M135 60 C94.33 61.5, 52.53 60, 15 60 M15 60 C4.45 59.31, 0.7 54.02, 0 45 M15 60 C3.2 60.64, -1.02 57.02, 0 45 M0 45 C0.82 38.59, 1.89 33.35, 0 15 M0 45 C0.86 35.61, -0.06 26.47, 0 15 M0 15 C-1.57 4.9, 5.14 0.32, 15 0 M0 15 C-0.53 4.33, 5.33 2.28, 15 0" stroke="#b9ab9a" stroke-width="2" fill="none"></path></g><g transform="translate(298 626) rotate(0 40 12.5)"><text x="0" y="17.900390625" font-family="Helvetica, Segoe UI Emoji" font-size="20px" fill="#1f1b17" text-anchor="start" style="white-space: pre;" direction="ltr" dominant-baseline="alphabetic">审批记录</text></g><g stroke-linecap="round" transform="translate(440 608) rotate(0 75 30)"><path d="M15 0 C51.92 0.07, 96.44 -0.44, 135 0 C142.6 -0.21, 150.66 8.32, 150 15 C148.15 23.4, 149.07 30.02, 150 45 C147.01 53.55, 144.63 59.56, 135 60 C85.77 58.11, 44.9 57.09, 15 60 C7.32 62.19, -0.45 56.96, 0 45 C-3.41 31.86, 2.41 22.73, 0 15 C0.08 5.19, 8.31 0.25, 15 0" stroke="none" stroke-width="0" fill="#f2ead7"></path><path d="M15 0 C41.77 -1.1, 67.16 0.63, 135 0 M15 0 C52.9 0.37, 89.62 -0.08, 135 0 M135 0 C144.04 -1.86, 149.95 6.83, 150 15 M135 0 C146.04 -1.3, 148.84 5.95, 150 15 M150 15 C148.75 25.57, 151.57 33.87, 150 45 M150 15 C149.77 21.52, 150.49 29.42, 150 45 M150 45 C151.94 56.81, 144.3 61.04, 135 60 M150 45 C152 53.11, 143.93 58.06, 135 60 M135 60 C106.93 61.07, 77.93 60.24, 15 60 M135 60 C102.52 60.64, 72.56 59.75, 15 60 M15 60 C3.01 58.64, -1.49 56.62, 0 45 M15 60 C3.57 59.62, 0.04 53.41, 0 45 M0 45 C-1 37.22, -1.01 30.61, 0 15 M0 45 C-0.49 35.63, -0.75 25.54, 0 15 M0 15 C-0.29 4.7, 3.15 0.46, 15 0 M0 15 C0.29 3.8, 4.33 0.69, 15 0" stroke="#b9ab9a" stroke-width="2" fill="none"></path></g><g transform="translate(466 626) rotate(0 20 12.5)"><text x="0" y="17.900390625" font-family="Helvetica, Segoe UI Emoji" font-size="20px" fill="#1f1b17" text-anchor="start" style="white-space: pre;" direction="ltr" dominant-baseline="alphabetic">回执</text></g><g stroke-linecap="round" transform="translate(608 608) rotate(0 87 30)"><path d="M15 0 C55.94 -2.87, 96.38 1.96, 159 0 C168.19 0.74, 170.65 5.72, 174 15 C173.8 25, 172.98 34.08, 174 45 C176.38 58.34, 167.95 57.06, 159 60 C121.36 56.41, 90.7 57.79, 15 60 C7.16 59.3, -1.18 51.58, 0 45 C-2.17 38.7, 1.53 27.29, 0 15 C-1.89 4.45, 2.17 1.39, 15 0" stroke="none" stroke-width="0" fill="#f2ead7"></path><path d="M15 0 C44.64 -0.72, 74.92 0.57, 159 0 M15 0 C56.21 -0.59, 98.25 -0.38, 159 0 M159 0 C168.79 0.84, 172.92 5.22, 174 15 M159 0 C167.76 -0.95, 173.62 5.18, 174 15 M174 15 C174.24 24.55, 175.67 38.13, 174 45 M174 15 C174.69 20.96, 174.87 28.68, 174 45 M174 45 C174.47 56.09, 168.38 61.26, 159 60 M174 45 C174.63 56.76, 167.01 59.04, 159 60 M159 60 C110.67 59.76, 59.04 60.12, 15 60 M159 60 C103.57 59.58, 50.32 59.31, 15 60 M15 60 C5.58 61.97, 0.32 55.22, 0 45 M15 60 C3.95 58.6, 1.09 54.39, 0 45 M0 45 C1.17 35.84, 0.09 27.87, 0 15 M0 45 C0.77 33.65, -0.83 22.6, 0 15 M0 15 C1 4.49, 5.16 0.61, 15 0 M0 15 C1.11 3.28, 3.32 -0.91, 15 0" stroke="#b9ab9a" stroke-width="2" fill="none"></path></g><g transform="translate(634 626) rotate(0 30 12.5)"><text x="0" y="17.900390625" font-family="Helvetica, Segoe UI Emoji" font-size="20px" fill="#1f1b17" text-anchor="start" style="white-space: pre;" direction="ltr" dominant-baseline="alphabetic">证明包</text></g><g stroke-linecap="round" transform="translate(800 608) rotate(0 63 30)"><path d="M15 0 C39.77 1.33, 63.13 -2.9, 111 0 C121.79 1.69, 125.84 3.12, 126 15 C126.36 26.59, 123.81 38.13, 126 45 C126.55 55.93, 119.27 61.76, 111 60 C79.74 59.4, 54.08 63.19, 15 60 C7 56.41, -1.9 53.39, 0 45 C-0.93 32.33, 0.64 19.85, 0 15 C3.34 3.72, 3.23 2.54, 15 0" stroke="none" stroke-width="0" fill="#e9efe1"></path><path d="M15 0 C36.15 -0.94, 55.94 -0.09, 111 0 M15 0 C39.54 1.09, 64.9 -0.05, 111 0 M111 0 C121.55 -0.47, 127.9 3.61, 126 15 M111 0 C122.09 -0.6, 126.39 4.4, 126 15 M126 15 C127.14 27.54, 127.17 38.4, 126 45 M126 15 C125.6 20.4, 125.26 27.95, 126 45 M126 45 C125 55.38, 120.45 61.49, 111 60 M126 45 C125.25 55.8, 122.69 60.03, 111 60 M111 60 C84.96 61.07, 61.26 58.61, 15 60 M111 60 C82.05 61.2, 52.94 59.53, 15 60 M15 60 C4.14 61.3, -1.88 53.83, 0 45 M15 60 C4.33 62.18, 2.15 55.37, 0 45 M0 45 C-0.65 34.47, 1.18 25.13, 0 15 M0 45 C0.03 33.67, 1.09 21.67, 0 15 M0 15 C-1.72 4.28, 3.17 0.75, 15 0 M0 15 C1.93 2.75, 6.92 2.09, 15 0" stroke="#b9ab9a" stroke-width="2" fill="none"></path></g><g transform="translate(826 626) rotate(0 20 12.5)"><text x="0" y="17.900390625" font-family="Helvetica, Segoe UI Emoji" font-size="20px" fill="#1f1b17" text-anchor="start" style="white-space: pre;" direction="ltr" dominant-baseline="alphabetic">回滚</text></g></svg>
