<svg version="1.1" xmlns="http://www.w3.org/2000/svg" viewBox="0 0 1212 832" width="1212" height="832"><!-- svg-source:excalidraw --><metadata></metadata><defs><style class="style-fonts">
      </style></defs><rect x="0" y="0" width="1212" height="832" fill="#f6f1e8"></rect><g stroke-linecap="round" transform="translate(10 10) rotate(0 596 406)"><path d="M32 0 C424.11 -6.68, 818.93 -4.37, 1160 0 C1183.87 -0.05, 1195.22 9.76, 1192 32 C1193.82 292.75, 1193.09 550.45, 1192 780 C1194.91 800.04, 1184.01 813.02, 1160 812 C740.5 809.12, 324.03 808.69, 32 812 C8.14 814.37, 3.17 804.87, 0 780 C3.22 529.8, 1 278.33, 0 32 C0.84 7.42, 12.48 -2.56, 32 0" stroke="none" stroke-width="0" fill="#fbf8f2"></path><path d="M32 0 C267.64 3.54, 503.47 3.68, 1160 0 M32 0 C342.72 -3.96, 653.74 -4.07, 1160 0 M1160 0 C1181.05 1.74, 1191.3 12.66, 1192 32 M1160 0 C1179.7 -2, 1192.97 9.43, 1192 32 M1192 32 C1190.3 264.87, 1190.18 499.1, 1192 780 M1192 32 C1190.27 286.77, 1190.54 540.56, 1192 780 M1192 780 C1191.98 801.88, 1179.5 813.64, 1160 812 M1192 780 C1191.61 799.99, 1180.31 813.62, 1160 812 M1160 812 C709.47 807.99, 258.33 808.56, 32 812 M1160 812 C822.47 807.98, 484.83 807.97, 32 812 M32 812 C10.24 812.74, -0.59 799.91, 0 780 M32 812 C12.8 813.12, -2 803.41, 0 780 M0 780 C-0.79 528.95, -2.3 276.75, 0 32 M0 780 C-1.64 593.36, -1.7 406.67, 0 32 M0 32 C0.47 9.46, 10.64 -1.68, 32 0 M0 32 C1.77 12.75, 11.27 1.64, 32 0" stroke="#b9ab9a" stroke-width="2" fill="none"></path></g><g stroke-linecap="round" transform="translate(42 38) rotate(0 60 19)"><path d="M9.5 0 C44.62 -1.39, 75.27 -3.75, 110.5 0 C116.56 -3.18, 117.61 0.96, 120 9.5 C119.73 15.86, 120.59 25.66, 120 28.5 C118.39 32.34, 115.57 41.37, 110.5 38 C81.94 37.95, 49.47 38.07, 9.5 38 C4.17 35.32, 2.81 32.08, 0 28.5 C-0.55 20.69, -3.42 15.78, 0 9.5 C3.45 3.16, 1.91 1.61, 9.5 0" stroke="none" stroke-width="0" fill="#f2e0d2"></path><path d="M9.5 0 C28.88 1.61, 51.72 -0.26, 110.5 0 M9.5 0 C46.9 0.03, 82.07 -0.92, 110.5 0 M110.5 0 C116.93 -0.91, 118.79 2.35, 120 9.5 M110.5 0 C118.66 -1.82, 121.36 3.85, 120 9.5 M120 9.5 C120.66 15.26, 119.72 19.63, 120 28.5 M120 9.5 C120.53 14.55, 120.92 19.35, 120 28.5 M120 28.5 C119.24 35.02, 115.04 39.76, 110.5 38 M120 28.5 C118.92 33.01, 117.64 37.81, 110.5 38 M110.5 38 C85.52 37.64, 57.82 39.65, 9.5 38 M110.5 38 C74.09 38, 37.23 39.28, 9.5 38 M9.5 38 C2.02 36.4, 0.31 34.71, 0 28.5 M9.5 38 C0.89 36.31, -1.48 32.8, 0 28.5 M0 28.5 C-1.06 22.48, 0.52 19.43, 0 9.5 M0 28.5 C-0.1 22.8, -0.87 17.47, 0 9.5 M0 9.5 C-0.89 1.85, 4.14 -1.61, 9.5 0 M0 9.5 C-0.12 2.69, 3.27 0.84, 9.5 0" stroke="#b9ab9a" stroke-width="2" fill="none"></path></g><g transform="translate(68 48) rotate(0 32 10)"><text x="0" y="14.3203125" font-family="Helvetica, Segoe UI Emoji" font-size="16px" fill="#6f6256" text-anchor="start" style="white-space: pre;" direction="ltr" dominant-baseline="alphabetic">架构总览</text></g><g transform="translate(42 96) rotate(0 154.02 42.5)"><text x="0" y="30.4306640625" font-family="Helvetica, Segoe UI Emoji" font-size="34px" fill="#1f1b17" text-anchor="start" style="white-space: pre;" direction="ltr" dominant-baseline="alphabetic">一个 kernel，多个</text><text x="0" y="72.9306640625" font-family="Helvetica, Segoe UI Emoji" font-size="34px" fill="#1f1b17" text-anchor="start" style="white-space: pre;" direction="ltr" dominant-baseline="alphabetic">操作者入口</text></g><g transform="translate(42 195) rotate(0 175.68 22.5)"><text x="0" y="16.1103515625" font-family="Helvetica, Segoe UI Emoji" font-size="18px" fill="#6f6256" text-anchor="start" style="white-space: pre;" direction="ltr" dominant-baseline="alphabetic">Hermit 的重心是 task kernel，</text><text x="0" y="38.6103515625" font-family="Helvetica, Segoe UI Emoji" font-size="18px" fill="#6f6256" text-anchor="start" style="white-space: pre;" direction="ltr" dominant-baseline="alphabetic">不是某一个 chat 或 adapter surface。</text></g><g stroke-linecap="round" transform="translate(42 270) rotate(0 564 59)"><path d="M29.5 0 C292.17 4.85, 555.22 2.41, 1098.5 0 C1121.08 -1.28, 1124.79 9.63, 1128 29.5 C1131.3 46.59, 1128.74 69.04, 1128 88.5 C1129.93 108.05, 1115.54 116.37, 1098.5 118 C877.41 116.18, 656.53 115.27, 29.5 118 C10.52 116.74, 1.37 109.04, 0 88.5 C1.98 76.93, 1.92 64.56, 0 29.5 C-0.49 8.36, 10.7 -3.3, 29.5 0" stroke="none" stroke-width="0" fill="#fffdf9"></path><path d="M29.5 0 C254.42 2.41, 477.54 1.31, 1098.5 0 M29.5 0 C365.55 -1.87, 702.3 -1.73, 1098.5 0 M1098.5 0 C1119.77 0.47, 1128.74 9.8, 1128 29.5 M1098.5 0 C1120.05 -1.12, 1126.31 8.96, 1128 29.5 M1128 29.5 C1126.33 42.98, 1126.56 59.58, 1128 88.5 M1128 29.5 C1127.69 42.46, 1127.04 55.93, 1128 88.5 M1128 88.5 C1128.3 106.92, 1116.52 116.21, 1098.5 118 M1128 88.5 C1128.77 109.04, 1117.13 119.79, 1098.5 118 M1098.5 118 C807.29 117.29, 516.3 115.84, 29.5 118 M1098.5 118 C678.11 114.44, 257.25 114.63, 29.5 118 M29.5 118 C9.81 119.05, -0.07 109.25, 0 88.5 M29.5 118 C8.31 118.87, 0.64 108.1, 0 88.5 M0 88.5 C-1.03 67.5, -1.53 49.63, 0 29.5 M0 88.5 C-0.4 68.32, 0.1 48.59, 0 29.5 M0 29.5 C1.68 8.11, 10.83 -1.32, 29.5 0 M0 29.5 C1.52 8.3, 7.92 2.25, 29.5 0" stroke="#b9ab9a" stroke-width="2" fill="none"></path></g><g transform="translate(66 298) rotate(0 70 17.5)"><text x="0" y="25.060546875" font-family="Helvetica, Segoe UI Emoji" font-size="28px" fill="#1f1b17" text-anchor="start" style="white-space: pre;" direction="ltr" dominant-baseline="alphabetic">操作者入口</text></g><g stroke-linecap="round" transform="translate(66 344) rotate(0 44 15)"><path d="M7.5 0 C22.89 0.67, 38.29 -0.07, 80.5 0 C82.8 -0.33, 87.98 -0.3, 88 7.5 C85.34 11.51, 87.52 20.2, 88 22.5 C88.09 24.97, 82.19 33.08, 80.5 30 C62.84 33.36, 44.31 33.5, 7.5 30 C3.03 33.05, 0.65 30.19, 0 22.5 C2.2 15.85, 0.56 12.57, 0 7.5 C-2.46 0.3, 4.42 -2.15, 7.5 0" stroke="none" stroke-width="0" fill="#f2e0d2"></path><path d="M7.5 0 C22.24 1.88, 38.47 -1.31, 80.5 0 M7.5 0 C29.53 0.05, 49.34 1.07, 80.5 0 M80.5 0 C83.86 -0.83, 87.72 0.85, 88 7.5 M80.5 0 C85.1 -0.76, 87.09 0.86, 88 7.5 M88 7.5 C88.01 12.43, 87.13 15.41, 88 22.5 M88 7.5 C88.58 10.39, 87.7 13.97, 88 22.5 M88 22.5 C86.83 25.54, 83.93 28.44, 80.5 30 M88 22.5 C87.4 27.41, 83.54 28.18, 80.5 30 M80.5 30 C52.54 30.89, 26.79 28.45, 7.5 30 M80.5 30 C58.47 29.72, 34.94 30.83, 7.5 30 M7.5 30 C1.04 30.38, 1.73 27.19, 0 22.5 M7.5 30 C1.35 29.85, 1.69 28.41, 0 22.5 M0 22.5 C1.08 18.45, -0.1 10.74, 0 7.5 M0 22.5 C-0.72 17.27, 0.15 11.64, 0 7.5 M0 7.5 C-1.04 0.57, 1.51 -1.18, 7.5 0 M0 7.5 C-2.25 0.44, 4.19 0.65, 7.5 0" stroke="#b9ab9a" stroke-width="2" fill="none"></path></g><g transform="translate(86 351) rotate(0 16.200000000000003 9.375)"><text x="0" y="13.42529296875" font-family="Helvetica, Segoe UI Emoji" font-size="15px" fill="#6f6256" text-anchor="start" style="white-space: pre;" direction="ltr" dominant-baseline="alphabetic">CLI</text></g><g stroke-linecap="round" transform="translate(190 344) rotate(0 44 15)"><path d="M7.5 0 C36.37 -2.06, 57.16 2.54, 80.5 0 C84.4 0.62, 91.17 4.3, 88 7.5 C86.51 9.18, 87.38 16.18, 88 22.5 C86.26 29.76, 88.7 30.58, 80.5 30 C58.82 32.61, 34.88 27.95, 7.5 30 C2.87 30.16, -0.07 24.8, 0 22.5 C-2.86 20.29, -0.69 14.61, 0 7.5 C2.77 -0.43, 5.48 -1, 7.5 0" stroke="none" stroke-width="0" fill="#f2e0d2"></path><path d="M7.5 0 C23.98 1.97, 39.97 2.33, 80.5 0 M7.5 0 C27.13 -0.29, 46.54 -0.61, 80.5 0 M80.5 0 C84.61 1.86, 86.69 3.24, 88 7.5 M80.5 0 C87.43 -0.41, 87.87 4.68, 88 7.5 M88 7.5 C88.74 11.55, 86.82 15.38, 88 22.5 M88 7.5 C87.74 10.03, 87.95 13.53, 88 22.5 M88 22.5 C89.36 28.82, 84.01 28.66, 80.5 30 M88 22.5 C86.02 26.46, 87.22 29.17, 80.5 30 M80.5 30 C60.25 31.52, 39.85 30.26, 7.5 30 M80.5 30 C64.78 29.21, 47.23 28.92, 7.5 30 M7.5 30 C3.61 29.71, -0.46 25.79, 0 22.5 M7.5 30 C1.73 28.83, -1.85 29.39, 0 22.5 M0 22.5 C-0.28 17.68, 0.73 9.21, 0 7.5 M0 22.5 C0.16 16.02, 0.03 11.42, 0 7.5 M0 7.5 C0.24 4.36, 3.52 -1.04, 7.5 0 M0 7.5 C-1.43 4.52, 3.18 -0.95, 7.5 0" stroke="#b9ab9a" stroke-width="2" fill="none"></path></g><g transform="translate(210 351) rotate(0 19.349999999999994 9.375)"><text x="0" y="13.42529296875" font-family="Helvetica, Segoe UI Emoji" font-size="15px" fill="#6f6256" text-anchor="start" style="white-space: pre;" direction="ltr" dominant-baseline="alphabetic">Chat</text></g><g stroke-linecap="round" transform="translate(314 344) rotate(0 53 15)"><path d="M7.5 0 C33.88 2.25, 65.67 -2.21, 98.5 0 C103.99 1.57, 105.16 1.7, 106 7.5 C105.67 9.84, 105.24 18.16, 106 22.5 C102.43 27.35, 106.02 28.08, 98.5 30 C66.13 31.65, 30.1 29.4, 7.5 30 C2.71 27.27, -0.8 26.62, 0 22.5 C-1.98 16.33, -1.4 10.65, 0 7.5 C0.8 6.03, -0.66 0.15, 7.5 0" stroke="none" stroke-width="0" fill="#f2e0d2"></path><path d="M7.5 0 C25.52 0.44, 45.04 0.36, 98.5 0 M7.5 0 C29.08 0.96, 52.44 1.29, 98.5 0 M98.5 0 C103.37 0.56, 107.67 1.63, 106 7.5 M98.5 0 C103.15 -0.06, 106.65 3.91, 106 7.5 M106 7.5 C104.77 10.68, 104.8 15.35, 106 22.5 M106 7.5 C106.39 14.17, 106.21 19.09, 106 22.5 M106 22.5 C105.89 28.11, 102.08 28.89, 98.5 30 M106 22.5 C107.25 25.5, 104.3 30.16, 98.5 30 M98.5 30 C64.17 30.64, 27.33 30.57, 7.5 30 M98.5 30 C66.27 28.52, 35.85 28.84, 7.5 30 M7.5 30 C2.17 29.03, 1.35 28.39, 0 22.5 M7.5 30 C2.1 27.81, -0.8 25.78, 0 22.5 M0 22.5 C-1.34 19.91, -1.14 16.67, 0 7.5 M0 22.5 C-0.75 19.28, -0.39 15.7, 0 7.5 M0 7.5 C1.53 4.16, 1.54 -0.9, 7.5 0 M0 7.5 C-0.61 3.99, 2.18 2.06, 7.5 0" stroke="#b9ab9a" stroke-width="2" fill="none"></path></g><g transform="translate(334 351) rotate(0 15 9.375)"><text x="0" y="13.42529296875" font-family="Helvetica, Segoe UI Emoji" font-size="15px" fill="#6f6256" text-anchor="start" style="white-space: pre;" direction="ltr" dominant-baseline="alphabetic">飞书</text></g><g stroke-linecap="round" transform="translate(442 344) rotate(0 61 15)"><path d="M7.5 0 C36.56 -0.82, 70.11 0.06, 114.5 0 C121.58 2.52, 124.35 -0.9, 122 7.5 C122.84 12.91, 121.11 14.14, 122 22.5 C123.79 24.94, 121.34 32.78, 114.5 30 C91.72 34.1, 63.91 34.25, 7.5 30 C2.56 31.57, -1.52 28.43, 0 22.5 C-1.1 20.77, -2.11 18.09, 0 7.5 C-1.17 5.3, 0.4 1.29, 7.5 0" stroke="none" stroke-width="0" fill="#f2e0d2"></path><path d="M7.5 0 C30.63 0.47, 53.29 -0.04, 114.5 0 M7.5 0 C31.71 0.4, 53.71 -0.62, 114.5 0 M114.5 0 C120.12 -0.75, 122.65 4.02, 122 7.5 M114.5 0 C121.48 0.3, 123.42 3.13, 122 7.5 M122 7.5 C121.5 12.81, 123.49 15.32, 122 22.5 M122 7.5 C121.24 13.8, 122.16 18.66, 122 22.5 M122 22.5 C120.43 27.39, 118.16 29.11, 114.5 30 M122 22.5 C121.88 29.14, 119.38 31.15, 114.5 30 M114.5 30 C80.59 29.56, 49.8 30.67, 7.5 30 M114.5 30 C85.84 29.73, 58.66 30.66, 7.5 30 M7.5 30 C0.73 28.36, -0.85 27, 0 22.5 M7.5 30 C2.48 31.39, 0.26 26.76, 0 22.5 M0 22.5 C0.3 19.14, -0.31 15.14, 0 7.5 M0 22.5 C0.13 18.03, -0.51 15.49, 0 7.5 M0 7.5 C-1.19 3.95, 3.55 -0.75, 7.5 0 M0 7.5 C0.21 3.47, 1.17 0.46, 7.5 0" stroke="#b9ab9a" stroke-width="2" fill="none"></path></g><g transform="translate(462 351) rotate(0 15 9.375)"><text x="0" y="13.42529296875" font-family="Helvetica, Segoe UI Emoji" font-size="15px" fill="#6f6256" text-anchor="start" style="white-space: pre;" direction="ltr" dominant-baseline="alphabetic">调度</text></g><g stroke-linecap="round" transform="translate(588 344) rotate(0 55 15)"><path d="M7.5 0 C31.15 -0.09, 51.2 -1.07, 102.5 0 C103.97 3.47, 108.34 3.71, 110 7.5 C111.47 13.57, 108.43 16.12, 110 22.5 C109.96 29.73, 108.65 30.29, 102.5 30 C77.21 32.92, 52.69 28.27, 7.5 30 C2.4 28.68, -2.24 30.25, 0 22.5 C-0.22 16.81, 2.58 14.13, 0 7.5 C-3.14 4.57, 1.46 2.44, 7.5 0" stroke="none" stroke-width="0" fill="#f2e0d2"></path><path d="M7.5 0 C25.85 0.68, 45.73 -0.27, 102.5 0 M7.5 0 C45.17 -0.22, 82.63 1.42, 102.5 0 M102.5 0 C108.88 1.94, 109.62 2.41, 110 7.5 M102.5 0 C107.2 0.65, 112.2 2.36, 110 7.5 M110 7.5 C110.23 11.93, 111.17 18.29, 110 22.5 M110 7.5 C109.9 13.44, 110.42 18.22, 110 22.5 M110 22.5 C110.96 26.68, 106.24 29.34, 102.5 30 M110 22.5 C108.5 28.19, 106.45 32.14, 102.5 30 M102.5 30 C81.99 30.59, 62.25 28.89, 7.5 30 M102.5 30 C66.14 29.02, 30.9 28.57, 7.5 30 M7.5 30 C3.29 31.69, 0.96 25.6, 0 22.5 M7.5 30 C2.85 30.37, 1.32 27.74, 0 22.5 M0 22.5 C-1.06 18.37, 0.52 13.61, 0 7.5 M0 22.5 C-0.78 18.29, 0.56 13.77, 0 7.5 M0 7.5 C0.09 3.74, 1.56 -0.61, 7.5 0 M0 7.5 C1.03 2.94, 4.76 -1.14, 7.5 0" stroke="#b9ab9a" stroke-width="2" fill="none"></path></g><g transform="translate(608 351) rotate(0 33.30000000000001 9.375)"><text x="0" y="13.42529296875" font-family="Helvetica, Segoe UI Emoji" font-size="15px" fill="#6f6256" text-anchor="start" style="white-space: pre;" direction="ltr" dominant-baseline="alphabetic">Webhook</text></g><g stroke-linecap="round" transform="translate(734 344) rotate(0 92 15)"><path d="M7.5 0 C44 4.99, 75.99 2.16, 176.5 0 C179.56 -2.78, 185.53 1.11, 184 7.5 C186.63 14.24, 182.29 18.1, 184 22.5 C182.13 27.32, 181.97 27.79, 176.5 30 C121.26 30.61, 65.4 28.36, 7.5 30 C2.24 32.99, -2.96 24.86, 0 22.5 C0.66 21.25, 1.86 16.16, 0 7.5 C2.09 3.84, 2.52 3.59, 7.5 0" stroke="none" stroke-width="0" fill="#f2e0d2"></path><path d="M7.5 0 C43.23 0.75, 78.51 -0.65, 176.5 0 M7.5 0 C69.5 -0.97, 131.28 -0.68, 176.5 0 M176.5 0 C179.63 0.64, 182.6 0.8, 184 7.5 M176.5 0 C183.53 1, 182.38 1.58, 184 7.5 M184 7.5 C185.26 14.06, 185.16 18.26, 184 22.5 M184 7.5 C184.55 13.07, 184.68 19.29, 184 22.5 M184 22.5 C183.49 25.96, 180.31 29.57, 176.5 30 M184 22.5 C185.73 27.23, 179.53 28.52, 176.5 30 M176.5 30 C122.57 29.55, 67.06 29.03, 7.5 30 M176.5 30 C126.15 30.82, 74.58 30.97, 7.5 30 M7.5 30 C1.86 31.02, -1.23 28.2, 0 22.5 M7.5 30 C3.23 29.35, -2.23 28.72, 0 22.5 M0 22.5 C0.58 17.61, 1.34 12.07, 0 7.5 M0 22.5 C0.1 17.05, 0.44 13.55, 0 7.5 M0 7.5 C1.37 3.54, 3.57 -0.47, 7.5 0 M0 7.5 C1.85 2.42, 3.76 1.87, 7.5 0" stroke="#b9ab9a" stroke-width="2" fill="none"></path></g><g transform="translate(754 351) rotate(0 30 9.375)"><text x="0" y="13.42529296875" font-family="Helvetica, Segoe UI Emoji" font-size="15px" fill="#6f6256" text-anchor="start" style="white-space: pre;" direction="ltr" dominant-baseline="alphabetic">更多入口</text></g><g stroke-linecap="round"><g transform="translate(606 388) rotate(0 0 22)"><path d="M0 0 C0.82 9.72, 0.47 18.11, 0 44 M0 0 C-0.64 15.08, -0.19 30.69, 0 44" stroke="#b9ab9a" stroke-width="3" fill="none"></path></g><g transform="translate(606 388) rotate(0 0 22)"><path d="M-0.66 44.3 L-5.6 30.68 L6.4 29.96 L0.48 43.27" stroke="none" stroke-width="0" fill="#b9ab9a" fill-rule="evenodd"></path><path d="M0 44 C-0.72 41.45, -2.37 37.9, -6.56 30.51 M0 44 C-2.53 39.29, -4.44 35, -6.56 30.51 M-6.56 30.51 C-3.25 30.34, 0.01 30.13, 6.12 30.3 M-6.56 30.51 C-3.85 30.27, -0.75 30.62, 6.12 30.3 M6.12 30.3 C4.91 34.12, 2.16 38, 0 44 M6.12 30.3 C3.72 35.03, 1.88 39.6, 0 44 M0 44 C0 44, 0 44, 0 44 M0 44 C0 44, 0 44, 0 44" stroke="#b9ab9a" stroke-width="3" fill="none"></path></g></g><mask></mask><g stroke-linecap="round" transform="translate(122 432) rotate(0 484 103)"><path d="M32 0 C339.63 1.87, 646.36 -0.37, 936 0 C954.18 2.24, 967.12 12.58, 968 32 C965.23 65.63, 967.64 107.53, 968 174 C966.98 198.73, 960.38 203.64, 936 206 C649.42 204.04, 366.09 204.58, 32 206 C13.77 208.25, 3.16 195.42, 0 174 C-1.23 142.23, 0.8 109.66, 0 32 C2.73 7.31, 8.68 1.71, 32 0" stroke="none" stroke-width="0" fill="#fffdf9"></path><path d="M32 0 C223.64 -3.13, 415.51 -3.16, 936 0 M32 0 C241.53 -2.7, 451.37 -2.59, 936 0 M936 0 C956.6 0.68, 969.06 12.55, 968 32 M936 0 C955.95 1.53, 967.55 10.89, 968 32 M968 32 C968.36 69.15, 966.14 108.58, 968 174 M968 32 C967.34 68.79, 966.71 107.01, 968 174 M968 174 C969.28 196.72, 956.26 205.91, 936 206 M968 174 C967.67 193.63, 956.28 203.71, 936 206 M936 206 C673.8 209.19, 412.75 209.69, 32 206 M936 206 C687.02 204.99, 438.15 205.01, 32 206 M32 206 C11.87 204.01, 1.48 195.94, 0 174 M32 206 C11.96 206.12, -0.64 193.43, 0 174 M0 174 C0.74 135.11, 2.13 93.37, 0 32 M0 174 C-0.48 120.97, -2.03 68.08, 0 32 M0 32 C1.3 11.39, 10.76 -0.25, 32 0 M0 32 C0.78 12.1, 10.42 -0.53, 32 0" stroke="#b77452" stroke-width="2" fill="none"></path></g><g transform="translate(150 458) rotate(0 30 9.375)"><text x="0" y="13.42529296875" font-family="Helvetica, Segoe UI Emoji" font-size="15px" fill="#6f6256" text-anchor="start" style="white-space: pre;" direction="ltr" dominant-baseline="alphabetic">任务内核</text></g><g transform="translate(150 484) rotate(0 96 20)"><text x="0" y="28.640625" font-family="Helvetica, Segoe UI Emoji" font-size="32px" fill="#1f1b17" text-anchor="start" style="white-space: pre;" direction="ltr" dominant-baseline="alphabetic">受治理的中心</text></g><g stroke-linecap="round" transform="translate(150 540) rotate(0 98 35)"><path d="M17.5 0 C63.25 2.37, 108.98 1.17, 178.5 0 C193 0.06, 192.7 3.84, 196 17.5 C196.06 30.53, 192.26 42.33, 196 52.5 C195.83 63.95, 188.59 67.5, 178.5 70 C131.69 69.24, 80.11 74.21, 17.5 70 C5.1 71.52, 2.07 66.98, 0 52.5 C-3.64 40.54, -1.19 24.91, 0 17.5 C3.38 4.98, 9.03 -0.17, 17.5 0" stroke="none" stroke-width="0" fill="#f2ead7"></path><path d="M17.5 0 C52.83 1.66, 85.75 2.94, 178.5 0 M17.5 0 C64.92 1.88, 112.14 2.14, 178.5 0 M178.5 0 C190.56 0.72, 195.53 7.3, 196 17.5 M178.5 0 C189.97 2.06, 196.72 7.19, 196 17.5 M196 17.5 C197.02 32.55, 196.72 43.31, 196 52.5 M196 17.5 C194.83 30.75, 195.41 42.01, 196 52.5 M196 52.5 C195.08 64.48, 189.2 70.25, 178.5 70 M196 52.5 C198.21 65.63, 190.03 71.49, 178.5 70 M178.5 70 C138.12 68.63, 97.07 71.66, 17.5 70 M178.5 70 C137.04 70.48, 97.32 70.46, 17.5 70 M17.5 70 C4.88 69, 0.19 64.68, 0 52.5 M17.5 70 C7.69 70.89, 0.94 63.74, 0 52.5 M0 52.5 C-0.6 43.34, 1.17 37.33, 0 17.5 M0 52.5 C-0.67 44.96, -0.24 37.11, 0 17.5 M0 17.5 C1.22 6.25, 4.94 -0.04, 17.5 0 M0 17.5 C-0.28 4.17, 4.08 1.68, 17.5 0" stroke="#b9ab9a" stroke-width="2" fill="none"></path></g><g transform="translate(170 562) rotate(0 45 11.25)"><text x="0" y="16.1103515625" font-family="Helvetica, Segoe UI Emoji" font-size="18px" fill="#1f1b17" text-anchor="start" style="white-space: pre;" direction="ltr" dominant-baseline="alphabetic">任务控制器</text></g><g stroke-linecap="round" transform="translate(374 540) rotate(0 75 35)"><path d="M17.5 0 C47.63 -0.27, 69.62 -3.33, 132.5 0 C141.39 1.01, 149.89 8.45, 150 17.5 C151.76 25.47, 153.42 33.09, 150 52.5 C148 61.54, 141.91 72.2, 132.5 70 C93.08 67.29, 54.69 67.46, 17.5 70 C4.94 68.62, 1.35 61.59, 0 52.5 C-2.37 40.64, -2.04 30.39, 0 17.5 C1.41 4.25, 2.89 0.98, 17.5 0" stroke="none" stroke-width="0" fill="#f2ead7"></path><path d="M17.5 0 C40.83 1.56, 67.75 2.39, 132.5 0 M17.5 0 C47.91 -1.22, 80.12 -0.31, 132.5 0 M132.5 0 C145.32 -0.59, 148.5 5.69, 150 17.5 M132.5 0 C146.29 -2.19, 151.49 6.42, 150 17.5 M150 17.5 C147.88 24.61, 150.18 29.73, 150 52.5 M150 17.5 C149.77 30.15, 149.81 41.2, 150 52.5 M150 52.5 C151.61 63.77, 143.28 70.47, 132.5 70 M150 52.5 C150.83 64.67, 143.11 67.88, 132.5 70 M132.5 70 C92.29 67.52, 49.04 67.73, 17.5 70 M132.5 70 C89.39 69.4, 47.68 69.99, 17.5 70 M17.5 70 C7.44 68.32, 1.99 63.28, 0 52.5 M17.5 70 C8.07 69.87, 2 64.72, 0 52.5 M0 52.5 C1.57 41.79, -1.73 34.24, 0 17.5 M0 52.5 C-0.07 42.82, -0.98 35.86, 0 17.5 M0 17.5 C-1.49 6.05, 6.95 0.11, 17.5 0 M0 17.5 C0.54 3.65, 7.67 0.08, 17.5 0" stroke="#b9ab9a" stroke-width="2" fill="none"></path></g><g transform="translate(394 562) rotate(0 27 11.25)"><text x="0" y="16.1103515625" font-family="Helvetica, Segoe UI Emoji" font-size="18px" fill="#1f1b17" text-anchor="start" style="white-space: pre;" direction="ltr" dominant-baseline="alphabetic">上下文</text></g><g stroke-linecap="round" transform="translate(552 540) rotate(0 75 35)"><path d="M17.5 0 C60.59 0.89, 109.05 3.17, 132.5 0 C142.98 1.96, 153.08 5.85, 150 17.5 C153.45 27.42, 153.37 37.85, 150 52.5 C153.36 66.33, 141.22 69.7, 132.5 70 C109.77 65.96, 86.69 68.53, 17.5 70 C4.79 72.93, 0.63 63.41, 0 52.5 C-1.1 40.94, -2.89 21.87, 0 17.5 C-0.56 3.52, 3.95 2.13, 17.5 0" stroke="none" stroke-width="0" fill="#f2ead7"></path><path d="M17.5 0 C42.58 -0.56, 65.26 -0.16, 132.5 0 M17.5 0 C46.48 0.33, 73.28 1.9, 132.5 0 M132.5 0 C146.07 -1.9, 151.48 4.08, 150 17.5 M132.5 0 C144.02 -1.83, 152.27 5.65, 150 17.5 M150 17.5 C149.44 23.67, 150.34 34.14, 150 52.5 M150 17.5 C150.7 29.55, 150.22 40.38, 150 52.5 M150 52.5 C150.14 63.05, 143.36 70.7, 132.5 70 M150 52.5 C149.46 63.71, 142.18 68.87, 132.5 70 M132.5 70 C99.81 72.72, 69.73 70.12, 17.5 70 M132.5 70 C99.17 68.58, 66.89 69.78, 17.5 70 M17.5 70 C6 71.65, -0.2 65.88, 0 52.5 M17.5 70 C3.84 68.85, -1.55 65.7, 0 52.5 M0 52.5 C-0.26 40.24, -0.64 31.15, 0 17.5 M0 52.5 C-0.78 42.68, -1.02 32.6, 0 17.5 M0 17.5 C-0.21 5.84, 4.97 0.25, 17.5 0 M0 17.5 C1.36 7.72, 6.67 -1.52, 17.5 0" stroke="#b9ab9a" stroke-width="2" fill="none"></path></g><g transform="translate(572 562) rotate(0 18 11.25)"><text x="0" y="16.1103515625" font-family="Helvetica, Segoe UI Emoji" font-size="18px" fill="#1f1b17" text-anchor="start" style="white-space: pre;" direction="ltr" dominant-baseline="alphabetic">策略</text></g><g stroke-linecap="round" transform="translate(730 540) rotate(0 113 35)"><path d="M17.5 0 C84.78 -1.22, 156.51 -0.8, 208.5 0 C220.57 2.91, 225.07 3.25, 226 17.5 C223.94 29.36, 229.33 42.61, 226 52.5 C227.53 63.92, 223.74 67.21, 208.5 70 C159.62 69.38, 109 74.36, 17.5 70 C4.63 70.04, -0.09 65.22, 0 52.5 C0.17 41.04, 3.45 34.55, 0 17.5 C-2.53 2.78, 5.01 3.27, 17.5 0" stroke="none" stroke-width="0" fill="#f2ead7"></path><path d="M17.5 0 C56.51 -0.84, 99.14 -0.89, 208.5 0 M17.5 0 C59.95 -0.57, 102.22 -0.34, 208.5 0 M208.5 0 C218.83 0.8, 226.46 6.47, 226 17.5 M208.5 0 C222.34 -1.48, 224.45 4.87, 226 17.5 M226 17.5 C226.29 26.73, 225.81 34.55, 226 52.5 M226 17.5 C225.64 28.95, 226.62 39.57, 226 52.5 M226 52.5 C224.67 62.33, 219.43 70.93, 208.5 70 M226 52.5 C224.09 62.76, 221.86 69.86, 208.5 70 M208.5 70 C135.46 71.76, 62.67 70.34, 17.5 70 M208.5 70 C169.41 70.29, 131.03 70.1, 17.5 70 M17.5 70 C4.56 70.98, 1.61 64.49, 0 52.5 M17.5 70 C4.22 67.83, -0.49 62.08, 0 52.5 M0 52.5 C1.92 38.69, 0.45 28.06, 0 17.5 M0 52.5 C0.52 40.54, 0.93 31.34, 0 17.5 M0 17.5 C1.07 5.63, 6.98 0.39, 17.5 0 M0 17.5 C2.18 7.2, 5.66 1.49, 17.5 0" stroke="#b9ab9a" stroke-width="2" fill="none"></path></g><g transform="translate(750 562) rotate(0 27 11.25)"><text x="0" y="16.1103515625" font-family="Helvetica, Segoe UI Emoji" font-size="18px" fill="#1f1b17" text-anchor="start" style="white-space: pre;" direction="ltr" dominant-baseline="alphabetic">执行层</text></g><g stroke-linecap="round"><g transform="translate(346 575) rotate(0 14 0)"><path d="M0 0 C6 0.07, 12.82 -0.17, 28 0 M0 0 C10.83 0.21, 22.57 -0.35, 28 0" stroke="#b9ab9a" stroke-width="3" fill="none"></path></g><g transform="translate(346 575) rotate(0 14 0)"><path d="M28.84 0.14 L15.85 5.84 L15.13 -6.69 L27.46 0.61" stroke="none" stroke-width="0" fill="#b9ab9a" fill-rule="evenodd"></path><path d="M28 0 C25.32 1.32, 23.19 2.37, 15.21 5.68 M28 0 C22.69 2.27, 18.02 4.14, 15.21 5.68 M15.21 5.68 C14.99 2.46, 15.05 -0.92, 15.42 -6.15 M15.21 5.68 C15.55 3.25, 15.28 0.31, 15.42 -6.15 M15.42 -6.15 C19.86 -4.11, 22.96 -1.89, 28 0 M15.42 -6.15 C20.13 -3.64, 25.26 -1.15, 28 0 M28 0 C28 0, 28 0, 28 0 M28 0 C28 0, 28 0, 28 0" stroke="#b9ab9a" stroke-width="3" fill="none"></path></g></g><mask></mask><g stroke-linecap="round"><g transform="translate(524 575) rotate(0 14 0)"><path d="M0 0 C5.44 -0.79, 11.19 -0.15, 28 0 M0 0 C8.03 0.09, 16.48 0.2, 28 0" stroke="#b9ab9a" stroke-width="3" fill="none"></path></g><g transform="translate(524 575) rotate(0 14 0)"><path d="M28.97 0.46 L15.66 7.04 L15.41 -5.67 L27.54 -0.61" stroke="none" stroke-width="0" fill="#b9ab9a" fill-rule="evenodd"></path><path d="M28 0 C24.93 0.62, 22.08 2.36, 15.38 6.05 M28 0 C24.42 1.9, 21.12 3.71, 15.38 6.05 M15.38 6.05 C15.38 2.31, 15.03 -0.9, 15.25 -5.78 M15.38 6.05 C15.45 2.42, 15.11 -1.01, 15.25 -5.78 M15.25 -5.78 C20.19 -3.05, 24.89 -0.64, 28 0 M15.25 -5.78 C19.85 -3.46, 24.75 -1.29, 28 0 M28 0 C28 0, 28 0, 28 0 M28 0 C28 0, 28 0, 28 0" stroke="#b9ab9a" stroke-width="3" fill="none"></path></g></g><mask></mask><g stroke-linecap="round"><g transform="translate(702 575) rotate(0 14 0)"><path d="M0 0 C6.87 0.06, 11.56 -0.4, 28 0 M0 0 C10.84 0.26, 20.59 0.03, 28 0" stroke="#b9ab9a" stroke-width="3" fill="none"></path></g><g transform="translate(702 575) rotate(0 14 0)"><path d="M27.09 0.77 L15.29 5.84 L15.87 -5.05 L27.63 0.17" stroke="none" stroke-width="0" fill="#b9ab9a" fill-rule="evenodd"></path><path d="M28 0 C25.95 1.35, 22.36 2.31, 15.36 6.02 M28 0 C23.54 2.46, 18.32 4.55, 15.36 6.02 M15.36 6.02 C15.8 2.95, 15.16 -1.27, 15.26 -5.81 M15.36 6.02 C15.38 1.19, 15.04 -3.32, 15.26 -5.81 M15.26 -5.81 C18.16 -4.81, 21.84 -1.86, 28 0 M15.26 -5.81 C19.68 -3.53, 24.29 -1.51, 28 0 M28 0 C28 0, 28 0, 28 0 M28 0 C28 0, 28 0, 28 0" stroke="#b9ab9a" stroke-width="3" fill="none"></path></g></g><mask></mask><g stroke-linecap="round"><g transform="translate(606 638) rotate(0 0 16)"><path d="M0 0 C0.28 5.89, -0.07 13.15, 0 32 M0 0 C-0.31 8.74, -0.18 16.54, 0 32" stroke="#b9ab9a" stroke-width="3" fill="none"></path></g><g transform="translate(606 638) rotate(0 0 16)"><path d="M-0.78 31.09 L-6.92 19.13 L5.25 17.75 L-0.29 32.95" stroke="none" stroke-width="0" fill="#b9ab9a" fill-rule="evenodd"></path><path d="M0 32 C-1.13 28.37, -2.78 25.8, -6.49 18.48 M0 32 C-1.89 28.74, -3.48 24.78, -6.49 18.48 M-6.49 18.48 C-2.78 18.67, 1.64 18.43, 6.18 18.33 M-6.49 18.48 C-3.11 18.63, 0.68 18.59, 6.18 18.33 M6.18 18.33 C4.08 22.87, 1 27.56, 0 32 M6.18 18.33 C3.94 23.28, 1.81 27.8, 0 32 M0 32 C0 32, 0 32, 0 32 M0 32 C0 32, 0 32, 0 32" stroke="#b9ab9a" stroke-width="3" fill="none"></path></g></g><mask></mask><g stroke-linecap="round" transform="translate(42 670) rotate(0 564 47)"><path d="M23.5 0 C274.25 -3.82, 525.69 -3, 1104.5 0 C1118.15 -1.44, 1129.44 4.65, 1128 23.5 C1129.84 38.8, 1130.01 58.08, 1128 70.5 C1131.23 85.89, 1121.69 90.91, 1104.5 94 C862.16 94.57, 620.34 93.68, 23.5 94 C6.16 92.56, -2.26 85.47, 0 70.5 C2.68 56.84, -0.41 49.6, 0 23.5 C-1.25 9.79, 10.19 -0.49, 23.5 0" stroke="none" stroke-width="0" fill="#fffdf9"></path><path d="M23.5 0 C254.3 0.52, 485.75 -0.03, 1104.5 0 M23.5 0 C401.01 4.06, 778.46 3.34, 1104.5 0 M1104.5 0 C1121.09 0.88, 1129.39 7.64, 1128 23.5 M1104.5 0 C1120.12 -0.42, 1128.78 9.15, 1128 23.5 M1128 23.5 C1127.5 37.24, 1126.84 48.45, 1128 70.5 M1128 23.5 C1127.71 38.8, 1127.1 52.45, 1128 70.5 M1128 70.5 C1126.26 86.19, 1119.66 95.6, 1104.5 94 M1128 70.5 C1126.56 86.49, 1119.09 92.23, 1104.5 94 M1104.5 94 C772.1 95.43, 440.18 94.69, 23.5 94 M1104.5 94 C718.82 94.29, 332.22 94.14, 23.5 94 M23.5 94 C6.25 92.96, -0.97 86.3, 0 70.5 M23.5 94 C7.35 93.37, -1.93 87.03, 0 70.5 M0 70.5 C0.42 60.08, -0.29 48.84, 0 23.5 M0 70.5 C-1.1 60.57, -0.72 50.48, 0 23.5 M0 23.5 C0.92 7.02, 7.01 0.82, 23.5 0 M0 23.5 C0.05 7.62, 9.25 1.3, 23.5 0" stroke="#b9ab9a" stroke-width="2" fill="none"></path></g><g transform="translate(68 688) rotate(0 168 30)"><text x="0" y="21.48046875" font-family="Helvetica, Segoe UI Emoji" font-size="24px" fill="#1f1b17" text-anchor="start" style="white-space: pre;" direction="ltr" dominant-baseline="alphabetic">持久层</text><text x="0" y="51.48046875" font-family="Helvetica, Segoe UI Emoji" font-size="24px" fill="#1f1b17" text-anchor="start" style="white-space: pre;" direction="ltr" dominant-baseline="alphabetic">账本、回执、证明、回滚、记忆</text></g></svg>
