<svg version="1.1" xmlns="http://www.w3.org/2000/svg" viewBox="0 0 1132 742" width="1132" height="742"><!-- svg-source:excalidraw --><metadata></metadata><defs><style class="style-fonts">
      </style></defs><rect x="0" y="0" width="1132" height="742" fill="#f6f1e8"></rect><g stroke-linecap="round" transform="translate(10 10) rotate(0 556 361)"><path d="M32 0 C396.23 -6.27, 763.17 -3.96, 1080 0 C1103.87 -0.05, 1115.22 9.76, 1112 32 C1113.56 261.51, 1112.83 487.98, 1112 690 C1114.91 710.04, 1104.01 723.02, 1080 722 C690.19 719.36, 303.42 718.93, 32 722 C8.14 724.37, 3.17 714.87, 0 690 C2.96 469.96, 0.74 248.64, 0 32 C0.84 7.42, 12.48 -2.56, 32 0" stroke="none" stroke-width="0" fill="#fbf8f2"></path><path d="M32 0 C250.91 3.28, 470.01 3.43, 1080 0 M32 0 C320.68 -3.67, 609.67 -3.78, 1080 0 M1080 0 C1101.05 1.74, 1111.3 12.66, 1112 32 M1080 0 C1099.7 -2, 1112.97 9.43, 1112 32 M1112 32 C1110.6 236.77, 1110.48 442.91, 1112 690 M1112 32 C1110.48 256.15, 1110.75 479.32, 1112 690 M1112 690 C1111.98 711.88, 1099.5 723.64, 1080 722 M1112 690 C1111.61 709.99, 1100.31 723.62, 1080 722 M1080 722 C661.43 718.25, 242.24 718.81, 32 722 M1080 722 C766.43 718.27, 452.74 718.26, 32 722 M32 722 C10.24 722.74, -0.59 709.91, 0 690 M32 722 C12.8 723.12, -2 713.41, 0 690 M0 690 C-0.6 469.2, -2.12 247.25, 0 32 M0 690 C-1.42 525.81, -1.48 361.57, 0 32 M0 32 C0.47 9.46, 10.64 -1.68, 32 0 M0 32 C1.77 12.75, 11.27 1.64, 32 0" stroke="#b9ab9a" stroke-width="2" fill="none"></path></g><g stroke-linecap="round" transform="translate(42 38) rotate(0 59 19)"><path d="M9.5 0 C43.96 -1.36, 73.96 -3.72, 108.5 0 C114.56 -3.18, 115.61 0.96, 118 9.5 C117.73 15.86, 118.59 25.66, 118 28.5 C116.39 32.34, 113.57 41.37, 108.5 38 C80.54 37.98, 48.67 38.1, 9.5 38 C4.17 35.32, 2.81 32.08, 0 28.5 C-0.55 20.69, -3.42 15.78, 0 9.5 C3.45 3.16, 1.91 1.61, 9.5 0" stroke="none" stroke-width="0" fill="#f2e0d2"></path><path d="M9.5 0 C28.46 1.61, 50.88 -0.26, 108.5 0 M9.5 0 C46.18 0.03, 80.62 -0.92, 108.5 0 M108.5 0 C114.93 -0.91, 116.79 2.35, 118 9.5 M108.5 0 C116.66 -1.82, 119.36 3.85, 118 9.5 M118 9.5 C118.66 15.26, 117.72 19.63, 118 28.5 M118 9.5 C118.53 14.55, 118.92 19.35, 118 28.5 M118 28.5 C117.24 35.02, 113.04 39.76, 108.5 38 M118 28.5 C116.92 33.01, 115.64 37.81, 108.5 38 M108.5 38 C84.02 37.63, 56.84 39.63, 9.5 38 M108.5 38 C72.81 37.99, 36.67 39.26, 9.5 38 M9.5 38 C2.02 36.4, 0.31 34.71, 0 28.5 M9.5 38 C0.89 36.31, -1.48 32.8, 0 28.5 M0 28.5 C-1.06 22.48, 0.52 19.43, 0 9.5 M0 28.5 C-0.1 22.8, -0.87 17.47, 0 9.5 M0 9.5 C-0.89 1.85, 4.14 -1.61, 9.5 0 M0 9.5 C-0.12 2.69, 3.27 0.84, 9.5 0" stroke="#b9ab9a" stroke-width="2" fill="none"></path></g><g transform="translate(68 48) rotate(0 32 10)"><text x="0" y="14.3203125" font-family="Helvetica, Segoe UI Emoji" font-size="16px" fill="#6f6256" text-anchor="start" style="white-space: pre;" direction="ltr" dominant-baseline="alphabetic">核心差异</text></g><g transform="translate(42 104) rotate(0 204 42.5)"><text x="0" y="30.4306640625" font-family="Helvetica, Segoe UI Emoji" font-size="34px" fill="#1f1b17" text-anchor="start" style="white-space: pre;" direction="ltr" dominant-baseline="alphabetic">不只是 agent 外壳。</text><text x="0" y="72.9306640625" font-family="Helvetica, Segoe UI Emoji" font-size="34px" fill="#1f1b17" text-anchor="start" style="white-space: pre;" direction="ltr" dominant-baseline="alphabetic">而是受治理的本地运行时。</text></g><g transform="translate(42 207) rotate(0 191.7 22.5)"><text x="0" y="16.1103515625" font-family="Helvetica, Segoe UI Emoji" font-size="18px" fill="#6f6256" text-anchor="start" style="white-space: pre;" direction="ltr" dominant-baseline="alphabetic">Hermit 把审批、证据、恢复，和</text><text x="0" y="38.6103515625" font-family="Helvetica, Segoe UI Emoji" font-size="18px" fill="#6f6256" text-anchor="start" style="white-space: pre;" direction="ltr" dominant-baseline="alphabetic">artifact 原生上下文放进同一条操作者路径。</text></g><g stroke-linecap="round" transform="translate(42 286) rotate(0 252 95)"><path d="M32 0 C139.62 3.31, 247.71 0.27, 472 0 C496.25 -1.28, 500.79 10.46, 504 32 C508.12 70.77, 505.56 114.91, 504 158 C505.93 179.22, 490.7 188.37, 472 190 C381.5 189.63, 291.26 188.49, 32 190 C11.35 188.74, 1.37 180.21, 0 158 C2.36 132.69, 2.3 106.59, 0 32 C-0.49 9.19, 11.53 -3.3, 32 0" stroke="none" stroke-width="0" fill="#fffdf9"></path><path d="M32 0 C125.15 1.68, 216.03 0.3, 472 0 M32 0 C170.14 -1.2, 309.16 -1.02, 472 0 M472 0 C494.94 0.47, 504.74 10.63, 504 32 M472 0 C495.21 -1.12, 502.31 9.8, 504 32 M504 32 C501.81 62.23, 502.03 95.58, 504 158 M504 32 C503.33 59.76, 502.68 88.03, 504 158 M504 158 C504.3 178.09, 491.69 188.21, 472 190 M504 158 C504.77 180.2, 492.3 191.79, 472 190 M472 190 C351.73 190.22, 231.75 188.41, 32 190 M472 190 C299.09 187.97, 125.61 188.22, 32 190 M32 190 C10.65 191.05, -0.07 180.42, 0 158 M32 190 C9.14 190.87, 0.64 179.26, 0 158 M0 158 C-1.53 115.33, -2.03 75.79, 0 32 M0 158 C-0.84 115.72, -0.34 73.89, 0 32 M0 32 C1.68 8.94, 11.67 -1.32, 32 0 M0 32 C1.52 9.14, 8.76 2.25, 32 0" stroke="#b9ab9a" stroke-width="2" fill="none"></path></g><g stroke-linecap="round" transform="translate(64 304) rotate(0 49 16)"><path d="M8 0 C29.58 -1.51, 48.03 -1.32, 90 0 C95.44 2.79, 96.39 1.17, 98 8 C100.59 14.81, 100.73 17.61, 98 24 C95.41 28.01, 95.96 32.73, 90 32 C60.44 32.99, 34.3 31.92, 8 32 C-0.33 32.89, 1.01 31.11, 0 24 C-1.29 19.02, 0.69 18.4, 0 8 C2.12 4.43, 0.46 0.88, 8 0" stroke="none" stroke-width="0" fill="#f2e0d2"></path><path d="M8 0 C25.76 -0.93, 42.01 -1.9, 90 0 M8 0 C24.75 -0.5, 40.28 -0.81, 90 0 M90 0 C97.31 1.82, 98.23 3.83, 98 8 M90 0 C96.07 -0.94, 96.7 3.71, 98 8 M98 8 C99.22 15.32, 98.84 18.05, 98 24 M98 8 C98.43 12.88, 97.7 18.33, 98 24 M98 24 C97.57 27.73, 93.73 30.32, 90 32 M98 24 C98.08 29.72, 96.14 31.98, 90 32 M90 32 C62.55 33.25, 34.49 30.22, 8 32 M90 32 C68.84 33.06, 48.36 32.86, 8 32 M8 32 C1.93 30.72, 0.83 27.72, 0 24 M8 32 C1.33 30.06, 1.16 29.75, 0 24 M0 24 C0.28 20.09, 1.05 17.07, 0 8 M0 24 C-0.44 19.08, -0.58 13.33, 0 8 M0 8 C0.32 0.84, 0.67 -1.25, 8 0 M0 8 C-0.37 3.17, 4.86 1.45, 8 0" stroke="#b9ab9a" stroke-width="2" fill="none"></path></g><g transform="translate(84 312) rotate(0 24 10)"><text x="0" y="14.3203125" font-family="Helvetica, Segoe UI Emoji" font-size="16px" fill="#6f6256" text-anchor="start" style="white-space: pre;" direction="ltr" dominant-baseline="alphabetic">控制面</text></g><g transform="translate(64 354) rotate(0 70 12.5)"><text x="0" y="17.900390625" font-family="Helvetica, Segoe UI Emoji" font-size="20px" fill="#1f1b17" text-anchor="start" style="white-space: pre;" direction="ltr" dominant-baseline="alphabetic">副作用前先审批</text></g><g transform="translate(64 395) rotate(0 98.69999999999999 18.75)"><text x="0" y="13.42529296875" font-family="Helvetica, Segoe UI Emoji" font-size="15px" fill="#6f6256" text-anchor="start" style="white-space: pre;" direction="ltr" dominant-baseline="alphabetic">模型提出动作。</text><text x="0" y="32.17529296875" font-family="Helvetica, Segoe UI Emoji" font-size="15px" fill="#6f6256" text-anchor="start" style="white-space: pre;" direction="ltr" dominant-baseline="alphabetic">Kernel 决定哪些需要审批。</text></g><g stroke-linecap="round" transform="translate(586 286) rotate(0 252 95)"><path d="M32 0 C183.17 -0.96, 335.47 -2.73, 472 0 C496.62 -2.51, 501.57 11.17, 504 32 C504.98 70.11, 508.88 104.94, 504 158 C504.94 180.39, 492.59 192.93, 472 190 C363.73 190.27, 259.37 188.54, 32 190 C7.36 192.31, -0.44 177.54, 0 158 C1.16 123.28, -0.61 90.17, 0 32 C-1.82 10.97, 10.58 3.17, 32 0" stroke="none" stroke-width="0" fill="#fffdf9"></path><path d="M32 0 C124.58 -0.29, 216.42 0.78, 472 0 M32 0 C188.07 0.46, 343.52 -0.04, 472 0 M472 0 C492.82 -0.79, 502.18 12.6, 504 32 M472 0 C494.12 -0.23, 504.26 10.16, 504 32 M504 32 C502.69 79.93, 503.44 130.71, 504 158 M504 32 C503.36 69.1, 503.38 107.69, 504 158 M504 158 C504.63 180.3, 491.88 188.77, 472 190 M504 158 C505.94 177.81, 492.29 191.96, 472 190 M472 190 C321.16 190.72, 169.65 190.39, 32 190 M472 190 C345.62 188.82, 219.25 188.33, 32 190 M32 190 C11.05 191.37, 0.44 178.92, 0 158 M32 190 C10.08 190.62, -1.32 177.12, 0 158 M0 158 C-0.31 118.11, -1.52 79.36, 0 32 M0 158 C-1.34 132.25, -0.19 105.51, 0 32 M0 32 C-1.12 12.43, 8.7 -0.97, 32 0 M0 32 C1.28 10.12, 10.84 -1.74, 32 0" stroke="#b9ab9a" stroke-width="2" fill="none"></path></g><g stroke-linecap="round" transform="translate(608 304) rotate(0 49 16)"><path d="M8 0 C31.47 2.32, 60.35 -2.13, 90 0 C95.82 1.57, 97.16 1.87, 98 8 C97.65 10.5, 97.19 19.37, 98 24 C94.43 29.18, 97.85 30.08, 90 32 C60.96 33.76, 28.28 31.5, 8 32 C2.88 29.27, -0.8 28.45, 0 24 C-2.11 17.42, -1.49 11.36, 0 8 C0.8 6.2, -0.49 0.15, 8 0" stroke="none" stroke-width="0" fill="#f2ead7"></path><path d="M8 0 C24.12 0.51, 41.75 0.44, 90 0 M8 0 C27.4 0.9, 48.59 1.23, 90 0 M90 0 C95.2 0.56, 99.67 1.8, 98 8 M90 0 C94.99 -0.06, 98.65 4.07, 98 8 M98 8 C96.69 11.39, 96.72 16.37, 98 24 M98 8 C98.42 15.11, 98.22 20.37, 98 24 M98 24 C97.89 29.94, 93.92 30.89, 90 32 M98 24 C99.25 27.33, 96.13 32.16, 90 32 M90 32 C59.26 32.66, 26.01 32.59, 8 32 M90 32 C60.88 30.61, 33.58 30.93, 8 32 M8 32 C2.34 31.03, 1.35 30.23, 0 24 M8 32 C2.27 29.81, -0.8 27.61, 0 24 M0 24 C-1.43 21.24, -1.22 17.78, 0 8 M0 24 C-0.8 20.56, -0.42 16.75, 0 8 M0 8 C1.53 4.32, 1.7 -0.9, 8 0 M0 8 C-0.61 4.16, 2.34 2.06, 8 0" stroke="#b9ab9a" stroke-width="2" fill="none"></path></g><g transform="translate(628 312) rotate(0 16 10)"><text x="0" y="14.3203125" font-family="Helvetica, Segoe UI Emoji" font-size="16px" fill="#6f6256" text-anchor="start" style="white-space: pre;" direction="ltr" dominant-baseline="alphabetic">证据</text></g><g transform="translate(608 354) rotate(0 86.80000000000001 25)"><text x="0" y="17.900390625" font-family="Helvetica, Segoe UI Emoji" font-size="20px" fill="#1f1b17" text-anchor="start" style="white-space: pre;" direction="ltr" dominant-baseline="alphabetic">执行后看 receipt</text><text x="0" y="42.900390625" font-family="Helvetica, Segoe UI Emoji" font-size="20px" fill="#1f1b17" text-anchor="start" style="white-space: pre;" direction="ltr" dominant-baseline="alphabetic">和 proof</text></g><g transform="translate(608 420) rotate(0 90 18.75)"><text x="0" y="13.42529296875" font-family="Helvetica, Segoe UI Emoji" font-size="15px" fill="#6f6256" text-anchor="start" style="white-space: pre;" direction="ltr" dominant-baseline="alphabetic">重要动作会留下持久证据。</text><text x="0" y="32.17529296875" font-family="Helvetica, Segoe UI Emoji" font-size="15px" fill="#6f6256" text-anchor="start" style="white-space: pre;" direction="ltr" dominant-baseline="alphabetic">看的不是模糊日志。</text></g><g stroke-linecap="round" transform="translate(42 500) rotate(0 252 95)"><path d="M32 0 C138.72 2.69, 243.64 2.2, 472 0 C489.8 3.47, 502.34 11.87, 504 32 C504.51 69.44, 500.46 102.18, 504 158 C503.96 181.56, 494.49 190.29, 472 190 C349.55 190.91, 227.49 188.59, 32 190 C10.56 188.68, -2.24 182.08, 0 158 C-0.04 113.87, 3.69 73.75, 0 32 C-3.14 12.74, 9.63 2.44, 32 0" stroke="none" stroke-width="0" fill="#fffdf9"></path><path d="M32 0 C124.02 -0.25, 216.81 -0.73, 472 0 M32 0 C204.99 1.11, 377.88 1.93, 472 0 M472 0 C494.71 1.94, 503.62 10.58, 504 32 M472 0 C493.04 0.65, 506.2 10.52, 504 32 M504 32 C503.58 72.43, 504.84 115.43, 504 158 M504 32 C503.38 80.44, 504.08 127.34, 504 158 M504 158 C504.96 178.51, 492.07 189.34, 472 190 M504 158 C502.5 180.02, 492.29 192.14, 472 190 M472 190 C376.58 191.22, 281.54 190.36, 32 190 M472 190 C304.16 188.68, 136.88 188.45, 32 190 M32 190 C11.46 191.69, 0.96 177.43, 0 158 M32 190 C11.02 190.37, 1.32 179.57, 0 158 M0 158 C-0.57 120.89, 1.52 82.93, 0 32 M0 158 C-1.84 121.58, -0.05 84.73, 0 32 M0 32 C0.09 11.91, 9.73 -0.61, 32 0 M0 32 C1.03 11.11, 12.93 -1.14, 32 0" stroke="#b9ab9a" stroke-width="2" fill="none"></path></g><g stroke-linecap="round" transform="translate(64 518) rotate(0 49 16)"><path d="M8 0 C24.17 1.91, 47.07 0, 90 0 C96.2 0.34, 97.94 2.57, 98 8 C100.47 11.95, 99.42 15.37, 98 24 C100.64 30.36, 92.55 34.64, 90 32 C70.69 34.53, 55.06 31.08, 8 32 C6.09 32.84, -2.6 25.79, 0 24 C-2.94 15.82, 2.08 10.07, 0 8 C-0.53 0.77, 5.76 -0.59, 8 0" stroke="none" stroke-width="0" fill="#e9efe1"></path><path d="M8 0 C26.48 -0.4, 41.49 0.42, 90 0 M8 0 C30.05 -1.34, 54.9 -0.38, 90 0 M90 0 C97.09 -0.71, 97.11 3.77, 98 8 M90 0 C93.9 0.83, 95.99 4.44, 98 8 M98 8 C97.35 10.66, 97.8 14.69, 98 24 M98 8 C98.4 12.54, 98.75 17.6, 98 24 M98 24 C98.22 28.15, 94.11 31.45, 90 32 M98 24 C95.82 29.54, 96.12 32.33, 90 32 M90 32 C68.37 32.08, 46.33 30.96, 8 32 M90 32 C69.32 31.8, 51.6 30.64, 8 32 M8 32 C2.74 31.35, 1.86 28.73, 0 24 M8 32 C3.21 34.16, 1.84 30.06, 0 24 M0 24 C-0.25 19.19, -0.61 18.5, 0 8 M0 24 C0.44 18.85, -0.26 13.77, 0 8 M0 8 C-1.27 3.81, 2.73 -0.54, 8 0 M0 8 C-0.86 0.55, 4.43 -1.93, 8 0" stroke="#b9ab9a" stroke-width="2" fill="none"></path></g><g transform="translate(84 526) rotate(0 16 10)"><text x="0" y="14.3203125" font-family="Helvetica, Segoe UI Emoji" font-size="16px" fill="#6f6256" text-anchor="start" style="white-space: pre;" direction="ltr" dominant-baseline="alphabetic">恢复</text></g><g transform="translate(64 568) rotate(0 83 25)"><text x="0" y="17.900390625" font-family="Helvetica, Segoe UI Emoji" font-size="20px" fill="#1f1b17" text-anchor="start" style="white-space: pre;" direction="ltr" dominant-baseline="alphabetic">天然带 rollback</text><text x="0" y="42.900390625" font-family="Helvetica, Segoe UI Emoji" font-size="20px" fill="#1f1b17" text-anchor="start" style="white-space: pre;" direction="ltr" dominant-baseline="alphabetic">意识</text></g><g transform="translate(64 634) rotate(0 97.65 18.75)"><text x="0" y="13.42529296875" font-family="Helvetica, Segoe UI Emoji" font-size="15px" fill="#6f6256" text-anchor="start" style="white-space: pre;" direction="ltr" dominant-baseline="alphabetic">已支持的 receipt 可回滚。</text><text x="0" y="32.17529296875" font-family="Helvetica, Segoe UI Emoji" font-size="15px" fill="#6f6256" text-anchor="start" style="white-space: pre;" direction="ltr" dominant-baseline="alphabetic">恢复不是事后补救。</text></g><g stroke-linecap="round" transform="translate(586 500) rotate(0 252 95)"><path d="M32 0 C182.27 2.02, 331.41 -0.79, 472 0 C490.18 2.24, 503.12 12.58, 504 32 C501.37 61.57, 503.78 99.42, 504 158 C502.98 182.73, 496.38 187.64, 472 190 C331.78 187.95, 195.6 188.63, 32 190 C13.77 192.25, 3.16 179.42, 0 158 C-1.24 129.66, 0.79 100.53, 0 32 C2.73 7.31, 8.68 1.71, 32 0" stroke="none" stroke-width="0" fill="#fffdf9"></path><path d="M32 0 C125.46 -2.22, 219.2 -2.25, 472 0 M32 0 C133.92 -1.63, 236.24 -1.49, 472 0 M472 0 C492.6 0.68, 505.06 12.55, 504 32 M472 0 C491.95 1.53, 503.55 10.89, 504 32 M504 32 C504.46 64.93, 502.25 100.15, 504 158 M504 32 C503.41 64.58, 502.78 98.59, 504 158 M504 158 C505.28 180.72, 492.26 189.91, 472 190 M504 158 C503.67 177.63, 492.28 187.71, 472 190 M472 190 C344 191.72, 217.44 192.34, 32 190 M472 190 C350.7 189.53, 229.52 189.56, 32 190 M32 190 C11.87 188.01, 1.48 179.94, 0 158 M32 190 C11.96 190.12, -0.64 177.43, 0 158 M0 158 C0.65 123.68, 2.04 86.51, 0 32 M0 158 C-0.35 110.9, -1.9 63.96, 0 32 M0 32 C1.3 11.39, 10.76 -0.25, 32 0 M0 32 C0.78 12.1, 10.42 -0.53, 32 0" stroke="#b9ab9a" stroke-width="2" fill="none"></path></g><g stroke-linecap="round" transform="translate(608 518) rotate(0 49 16)"><path d="M8 0 C33.26 -1.46, 59.4 -0.81, 90 0 C96.58 -0.89, 98.71 3.28, 98 8 C97.54 13.4, 95.89 17.13, 98 24 C99.66 31.53, 94.44 31.99, 90 32 C71.22 28.09, 49.05 30.66, 8 32 C2.09 29.21, 2.79 30.33, 0 24 C2 17.41, -0.11 15.19, 0 8 C-1.85 2.54, 4.81 -1.32, 8 0" stroke="none" stroke-width="0" fill="#eee7f7"></path><path d="M8 0 C24.83 1.05, 41.23 -1.23, 90 0 M8 0 C34.7 0.06, 61.21 -0.34, 90 0 M90 0 C94.97 -1.98, 98.55 1.74, 98 8 M90 0 C97.41 1.71, 97.94 4.8, 98 8 M98 8 C98.02 13.13, 98.89 19.41, 98 24 M98 8 C98.38 13.17, 97.67 19.64, 98 24 M98 24 C98.55 30.36, 94.3 32.02, 90 32 M98 24 C96.98 27.15, 96.12 32.5, 90 32 M90 32 C61.08 31.49, 33.86 33.34, 8 32 M90 32 C63.36 30.99, 34.81 32.36, 8 32 M8 32 C3.15 31.67, -1.62 31.24, 0 24 M8 32 C4.15 33.91, -0.12 27.92, 0 24 M0 24 C0.92 20.34, 0 16.01, 0 8 M0 24 C0.08 17.13, -0.1 12.39, 0 8 M0 8 C-0.06 3.29, 3.76 -0.18, 8 0 M0 8 C-1.1 1.53, 1.92 -1.33, 8 0" stroke="#b9ab9a" stroke-width="2" fill="none"></path></g><g transform="translate(628 526) rotate(0 24 10)"><text x="0" y="14.3203125" font-family="Helvetica, Segoe UI Emoji" font-size="16px" fill="#6f6256" text-anchor="start" style="white-space: pre;" direction="ltr" dominant-baseline="alphabetic">上下文</text></g><g transform="translate(608 568) rotate(0 103 25)"><text x="0" y="17.900390625" font-family="Helvetica, Segoe UI Emoji" font-size="20px" fill="#1f1b17" text-anchor="start" style="white-space: pre;" direction="ltr" dominant-baseline="alphabetic">artifact 原生上下文</text><text x="0" y="42.900390625" font-family="Helvetica, Segoe UI Emoji" font-size="20px" fill="#1f1b17" text-anchor="start" style="white-space: pre;" direction="ltr" dominant-baseline="alphabetic">与记忆</text></g><g transform="translate(608 634) rotate(0 136.64999999999998 18.75)"><text x="0" y="13.42529296875" font-family="Helvetica, Segoe UI Emoji" font-size="15px" fill="#6f6256" text-anchor="start" style="white-space: pre;" direction="ltr" dominant-baseline="alphabetic">上下文来自 artifact、task state、</text><text x="0" y="32.17529296875" font-family="Helvetica, Segoe UI Emoji" font-size="15px" fill="#6f6256" text-anchor="start" style="white-space: pre;" direction="ltr" dominant-baseline="alphabetic">belief 和 governed memory。</text></g></svg>
